<?xml version="1.0" encoding="UTF-8"?>
<svg viewBox="0 0 550 698.46887" xmlns="http://www.w3.org/2000/svg">
 <g transform="translate(-124 78.638)">
  <path d="m149.78 582.44c25.418-8.3553 52.421-9.1033 81.434-0.21605-25.277 9.0313-52.562 8.4274-81.434 0.21605z" fill="#d4aa00"/>
  <path d="m203.28 569.47c25.418-8.3553 52.421-9.1033 81.434-0.21605-25.277 9.0313-52.562 8.4274-81.434 0.21605z" fill="#d4aa00"/>
  <path d="m169 436.36 11 143c7.9617 5.7816 18.425 4.058 29 2l15-151z" fill="#520"/>
  <path d="m219.5 422.89 11 143c7.9617 5.7816 18.425 4.058 29 2l15-151z" fill="#520"/>
  <path d="m553.28 598.47c25.418-8.3553 52.421-9.1033 81.434-0.21605-25.277 9.0313-52.562 8.4274-81.434 0.21605z" fill="#d4aa00"/>
  <path d="m502.28 613.47c25.418-8.3553 52.421-9.1033 81.434-0.21605-25.277 9.0313-52.562 8.4274-81.434 0.21605z" fill="#d4aa00"/>
  <g transform="translate(56,10)" fill="#520">
   <path d="m465.5 457.89 11 143c7.9617 5.7816 18.425 4.058 29 2l15-151z"/>
   <path d="m514.5 443.89 11 143c7.9617 5.7816 18.425 4.058 29 2l15-151z"/>
  </g>
  <path d="m316-62.638-28 14 7 10h10l83 170 125-183h11l9-7-30-20-5 11 2 8-112 177-72-161 6-9z" fill="#332a0f"/>
  <path d="m309 121.36c20.455-36.646 166.34-32.433 158-4z" fill="#fd6a00"/>
  <path d="m124 121.36 490-12-17 370-469-33z" fill="#d45500"/>
  <path d="m612 108.36 62 32-23 332-55 7z" fill="#803300"/>
  <path d="m154 154.36 344-1-16 274-325-18z" fill="#3b2213"/>
  <path d="m168 162.36 3 236 300 14 7-249z" fill="#808080"/>
  <path d="m176 168.36 292 4-5 201c-42.841-244.19-49.783-151.74-287-205z" fill="#999" opacity=".83658"/>
  <path d="m460 403.36-280-13-6-199c65.841 187.19-42.217 165.74 286 212z" fill="#666" opacity=".36965"/>
  <path d="m509 294.36-8 137 78 3 6-138z" fill="#714b00" stroke="#282828" stroke-width="5.1"/>
  <path transform="translate(11,-172)" d="m537 395.36c42.869-1.4673 36.633 50.883 3 51z" fill="#282828"/>
  <path transform="translate(662,-99)" d="m-124.11 327.22c11.123-6.1346 25.113-2.0906 31.248 9.0325s2.0906 25.113-9.0325 31.248-25.113 2.0906-31.248-9.0325c-6.1215-11.099-2.109-25.059 8.972-31.214" fill="#414141" stroke="#9b948f" stroke-width="5.1"/>
  <path transform="translate(11,-172)" d="m538 429.36 3 8 4-3-6-10z" fill="#f5f5f5"/>
  <g transform="translate(3.75,-66.5)">
   <path transform="translate(11,-172)" d="m537 395.36c42.869-1.4673 36.633 50.883 3 51z" fill="#282828"/>
   <path transform="translate(662,-99)" d="m-124.11 327.22c11.123-6.1346 25.113-2.0906 31.248 9.0325s2.0906 25.113-9.0325 31.248-25.113 2.0906-31.248-9.0325c-6.1215-11.099-2.109-25.059 8.972-31.214" fill="#414141" stroke="#9b948f" stroke-width="5.1"/>
   <path d="m556.58 243.24 7.6903-3.7228-3.3551-3.7072-9.406 6.894z" fill="#f5f5f5"/>
  </g>
  <path d="m514.07 302.36 62.933 2-1.0667 6-62.933-2z" fill="#241c1c"/>
  <path d="m514.07 317.36 62.933 2-1.0667 6-62.933-2z" fill="#241c1c"/>
  <path d="m514.07 331.36 62.933 2-1.0667 6-62.933-2z" fill="#241c1c"/>
  <path d="m513.07 346.36 62.933 2-1.0667 6-62.933-2z" fill="#241c1c"/>
  <path d="m512.07 361.36 62.933 2-1.0667 6-62.933-2z" fill="#241c1c"/>
  <path d="m511.07 377.36 62.933 2-1.0667 6-62.933-2z" fill="#241c1c"/>
  <path d="m510.07 391.36 62.933 2-1.0667 6-62.933-2z" fill="#241c1c"/>
  <path d="m510.07 404.36 62.933 2-1.0667 6-62.933-2z" fill="#241c1c"/>
  <path d="m508.07 416.36 62.933 2-1.0667 6-62.933-2z" fill="#241c1c"/>
  <path d="m508.07 416.36 62.933 2-1.0667 6-62.933-2z" fill="#241c1c"/>
 </g>
</svg>
