<?xml version="1.0" encoding="UTF-8"?>
<!DOCTYPE svg  PUBLIC '-//W3C//DTD SVG 1.1//EN'  'http://www.w3.org/Graphics/SVG/1.1/DTD/svg11.dtd'>
<svg enable-background="new 0 0 1920 1920" version="1.1" viewBox="0 0 1920 1920" xml:space="preserve" xmlns="http://www.w3.org/2000/svg">
<g stroke-width=".294">
	<path d="m450.97 142.04c13.67-11.93 31.1-19.19 49.06-21.35 22.45-2.75 45.19 0.03 67.14 4.96 21.21 4.81 41.99 11.34 62.4 18.81 14.35 5.35 28.61 11.02 42.4 17.69 3.9 1.9 7.89 3.76 11.17 6.67-0.08 1.33-0.21 2.66-0.38 3.99-0.46 1.47-1.01 2.92-1.64 4.34-0.91 1.42-1.9 2.8-2.91 4.15-1.81 2.09-4.34 4.67-7.39 3.43-21.03-5.38-41.9-12.67-63.79-13.45-5.82 0.06-12.02 0.54-17.02 3.81-11.3 6.97-21.4 15.76-30.5 25.39-16.03 17.15-29.2 36.76-40.85 57.08-9.24 15.71-16.67 32.4-23.14 49.41-4.38 10.98-8.13 22.3-14.01 32.61-4.22 7.46-10.38 14.2-18.54 17.31-10.87 4.11-22.96 3.6-34.1 0.88-19.17-4.83-35.51-18.49-44.85-35.75-8.74-15.44-10.87-33.78-8.54-51.18 3.72-27.37 18.2-51.58 32.8-74.46 12.7-19.19 24.99-39.25 42.69-54.34m36.62-9.48c-8.81 4.04-16.58 9.96-23.96 16.16-11.11 9.53-21.29 20.12-30.71 31.31-15.81 19.01-30.14 39.71-39.09 62.89-4.97 12.4-6.6 25.84-6.61 39.12 0.01 10.84 1.62 21.83 5.89 31.85 4.47 10.63 12.6 19.71 22.89 25 13.11 6.8 28.62 8.63 43.08 5.94 8.69-1.55 14.11-9.37 18.25-16.47 9.66-17.22 16.26-35.9 24.18-53.94 6.9-15.71 13.15-31.85 22.59-46.27 16.95-26.34 41.03-48.03 68.91-62.28 5.46-3.15 11.99-2.28 17.98-1.77 14.15 1.66 28.03 4.97 41.98 7.81 7.02 1.39 14.05 3.29 21.28 3.05 0.04-3.84-4.14-4.94-6.92-6.39-12.38-5.16-25.1-9.46-37.69-14.09-38.79-14.86-80.01-24.36-121.68-24.63-6.83 0.15-14.02-0.26-20.37 2.71z" fill="#909090" stroke="#909090"/>
	<path d="m487.59 132.56c6.35-2.97 13.54-2.56 20.37-2.71 41.67 0.27 82.89 9.77 121.68 24.63 12.59 4.63 25.31 8.93 37.69 14.09 2.78 1.45 6.96 2.55 6.92 6.39-7.23 0.24-14.26-1.66-21.28-3.05-13.95-2.84-27.83-6.15-41.98-7.81-5.99-0.51-12.52-1.38-17.98 1.77-27.88 14.25-51.96 35.94-68.91 62.28-9.44 14.42-15.69 30.56-22.59 46.27-7.92 18.04-14.52 36.72-24.18 53.94-4.14 7.1-9.56 14.92-18.25 16.47-14.46 2.69-29.97 0.86-43.08-5.94-10.29-5.29-18.42-14.37-22.89-25-4.27-10.02-5.88-21.01-5.89-31.85 0.01-13.28 1.64-26.72 6.61-39.12 8.95-23.18 23.28-43.88 39.09-62.89 9.42-11.19 19.6-21.78 30.71-31.31 7.38-6.2 15.15-12.12 23.96-16.16m9.64 8.78c-9.64 2.4-18.45 7.43-26.18 13.6-9.31 7.31-17.66 15.79-25.37 24.75-15.61 18.02-29.04 37.96-39.52 59.38-6.45 14.07-12.67 29.14-11.75 44.92 1.45 14.76 5.72 30.29 16.64 40.94 6.29 6.45 16 10.21 24.93 7.82 3.04-0.66 3.88-4.13 4.34-6.76 0.96-6.3 0.64-12.7 0.59-19.04-0.42-16.66-0.45-33.41 2.02-49.93 3.32-23.45 12.58-46.67 29.29-63.82 13.68-14.14 31.4-23.78 49.99-29.82 19.81-6.77 40.84-10.14 61.78-9.44 4.71 0.1 9.37 1.1 14.1 0.79-15-4.63-29.62-10.7-45.14-13.48-18.32-3.43-37.52-4.71-55.72 0.09z" fill="#BABABA" stroke="#BABABA"/>
	<path d="m497.23 141.34c18.2-4.8 37.4-3.52 55.72-0.09 15.52 2.78 30.14 8.85 45.14 13.48-4.73 0.31-9.39-0.69-14.1-0.79-20.94-0.7-41.97 2.67-61.78 9.44-18.59 6.04-36.31 15.68-49.99 29.82-16.71 17.15-25.97 40.37-29.29 63.82-2.47 16.52-2.44 33.27-2.02 49.93 0.05 6.34 0.37 12.74-0.59 19.04-0.46 2.63-1.3 6.1-4.34 6.76-8.93 2.39-18.64-1.37-24.93-7.82-10.92-10.65-15.19-26.18-16.64-40.94-0.92-15.78 5.3-30.85 11.75-44.92 10.48-21.42 23.91-41.36 39.52-59.38 7.71-8.96 16.06-17.44 25.37-24.75 7.73-6.17 16.54-11.2 26.18-13.6z" fill="#D9D8D8" stroke="#D9D8D8"/>
	<path d="m682.76 172.81c53.83 24.36 105.46 53.66 153.6 87.93-1.24 0.79-2.45 1.59-3.67 2.39-15.17-9.75-30.19-19.75-45.48-29.33-17.58-10.63-35.01-21.57-53.48-30.63-17.13-9.48-35.19-17.13-52.61-26.02 0.63-1.42 1.18-2.87 1.64-4.34z" fill="#BABABA" stroke="#BABABA"/>
	<path d="m681.12 177.15c17.42 8.89 35.48 16.54 52.61 26.02 18.47 9.06 35.9 20 53.48 30.63 15.29 9.58 30.31 19.58 45.48 29.33-1.57 1.02-3.12 2.06-4.68 3.09-16.91-12.83-34.87-24.18-53.06-35.09-16.24-9.62-32.66-18.96-49.4-27.69-15.35-8.26-31.12-15.76-47.34-22.14 1.01-1.35 2-2.73 2.91-4.15z" fill="#CCCBCB" stroke="#CCCBCB"/>
	<path d="m977.47 194.51c19.37-5.21 39.5-8.96 59.62-7.21 11.1 1.26 22.82 4.42 30.78 12.75 4.11 4.15 6 10.22 5 15.99-1.4399 8.14-6.28 15.14-11.33 21.49-9.26 11.32-20.36 20.91-31.15 30.71-6.91 3.41-13.5 7.7-18.63 13.52-3.82 4.4-9 7.19-13.77 10.39-19.27 12.4-39.46 23.46-60.59 32.35-7.72 3.33-15.86 5.67-23.37 9.48-12.56 6.3-24.14 14.33-35.56 22.48-18.33 13.27-35.95 27.47-53.95 41.18-10.71 8.08-21.46 16.17-33.09 22.89-6.12 3.53-12.86 6.22-19.96 6.76-12.35 1.23-24.96-4.23-32.85-13.74-9.4-11.05-12.3-26.62-9.56-40.65 2.74-15.83 12.22-29.42 22.21-41.59 21.89-25.64 48.88-46.36 76.74-65.09 1.56-1.03 3.11-2.07 4.68-3.09 1.22-0.8 2.43-1.6 3.67-2.39 7.28-4.71 14.69-9.21 22.21-13.52-0.82-1.44-1.79-3.08-1.08-4.78 1.89-6.57 6.87-11.66 11.72-16.24 7.33-6.86 16.32-11.5 25.39-15.62 6.28-2.81 12.68-7.23 19.9-5.96 4.83 1.13 10.42 2.85 12.68 7.74 16.36-7.02 33.12-13.13 50.29-17.85m31.51 4.51c-19.51 1.33-39.15 3.84-57.69 10.33-18.15 5.75-35.42 13.93-52.27 22.73-35.51 19.23-70.15 40.26-102.48 64.51-14.62 11.57-29.32 23.3-41.37 37.63-5.89 6.75-11.17 14.24-14.18 22.75-4.03 10.68-7.79 22.22-5.6 33.73 1.74 8.84 8.96 15.33 16.64 19.32 4.04 1.99 7.97 4.31 12.32 5.54 6.66 1.46 13.71 0.52 19.98-2.06 14.99-5.98 27.73-16.13 40.58-25.65 16.46-12.57 32.65-25.51 49.71-37.27 25.98-18.58 53.93-34.54 83.67-46.28 15.14-5.55 29.19-13.64 42.7-22.36 12.04-8.07 23.61-16.88 34.22-26.76 2.9601-3.12 6.5601-5.75 8.65-9.59 3.89-3.05 6.73-7.21 9.54-11.22 3.85-6.07 7.59-12.91 6.9399-20.35-0.1899-4.99-3.72-9.25-8.0299-11.43-6.5901-3.36-14.14-3.61-21.35-4.18-3.39-0.1-6.9099-0.55-10.15 0.64-3.8998-0.86-7.8998-0.1-11.83-0.03m-103.08 11.78c-10.64 4.12-20.78 9.5-30.45 15.55-4.33 2.95-8.92 6.33-10.88 11.39-0.81 1.88 0.69 3.58 1.39 5.23 14.91-8.82 30.56-16.26 46.07-23.96 3.6899-1.78 7.7-2.95 10.99-5.5-5.15-2.83-11.35-4.98-17.12-2.71z" fill="#A73C3C" stroke="#A73C3C"/>
	<path d="m1009 199.02c3.93-0.07 7.93-0.83 11.83 0.03-8.34 3.83-17.22 6.28-25.53 10.18-28.87 11.79-57.19 24.91-84.95 39.11-7.9 3.59-15.2 8.31-23.02 12.04-17.46 9.68-34.96 19.34-51.58 30.43-9.65 5.75-18.56 12.61-27.55 19.3-8.33 6.26-15.71 13.63-22.86 21.17-4.61 5.06-8.55 10.84-10.72 17.38-3.72 10.16-8.36 20.96-6.19 31.98 1.46 5.42 8.16 6.31 12.72 4.53 17.04-5.52 31.03-17.21 45.22-27.71 21.8-15.12 45.55-27.08 69.29-38.8 26.12-12.61 52.81-24.01 79.35-35.7 16.71-7.11 33.06-15.1 48.65-24.41 6.88-4.11 13.43-8.72 20.22-12.96-2.09 3.84-5.6899 6.47-8.65 9.59-10.61 9.88-22.18 18.69-34.22 26.76-13.51 8.72-27.56 16.81-42.7 22.36-29.74 11.74-57.69 27.7-83.67 46.28-17.06 11.76-33.25 24.7-49.71 37.27-12.85 9.52-25.59 19.67-40.58 25.65-6.27 2.58-13.32 3.52-19.98 2.06-4.35-1.23-8.28-3.55-12.32-5.54-7.6801-3.99-14.9-10.48-16.64-19.32-2.19-11.51 1.57-23.05 5.6-33.73 3.01-8.51 8.29-16 14.18-22.75 12.05-14.33 26.75-26.06 41.37-37.63 32.33-24.25 66.97-45.28 102.48-64.51 16.85-8.8 34.12-16.98 52.27-22.73 18.54-6.49 38.18-9 57.69-10.33z" fill="#C24141" stroke="#C24141"/>
	<path d="m1020.8 199.05c3.2401-1.19 6.7599-0.74 10.15-0.64 7.2101 0.57 14.76 0.82 21.35 4.18 4.3099 2.18 7.84 6.44 8.0299 11.43 0.65 7.44-3.09 14.28-6.9399 20.35-2.8101 4.01-5.65 8.17-9.54 11.22-6.79 4.24-13.34 8.85-20.22 12.96-15.59 9.31-31.94 17.3-48.65 24.41-26.54 11.69-53.23 23.09-79.35 35.7-23.74 11.72-47.49 23.68-69.29 38.8-14.19 10.5-28.18 22.19-45.22 27.71-4.56 1.78-11.26 0.89-12.72-4.53-2.17-11.02 2.47-21.82 6.19-31.98 2.17-6.54 6.11-12.32 10.72-17.38 7.15-7.54 14.53-14.91 22.86-21.17 8.99-6.69 17.9-13.55 27.55-19.3 16.62-11.09 34.12-20.75 51.58-30.43 7.82-3.73 15.12-8.45 23.02-12.04 27.76-14.2 56.08-27.32 84.95-39.11 8.3099-3.9 17.19-6.35 25.53-10.18z" fill="#CF4646" stroke="#CF4646"/>
	<path d="m905.9 210.8c5.77-2.27 11.97-0.12 17.12 2.71-3.29 2.55-7.3 3.72-10.99 5.5-15.51 7.7-31.16 15.14-46.07 23.96-0.7-1.65-2.2-3.35-1.39-5.23 1.96-5.06 6.55-8.44 10.88-11.39 9.67-6.05 19.81-11.43 30.45-15.55z" fill="#C24141" stroke="#C24141"/>
	<path d="m1086.9 262.11c10.24-1.99 20.7-3.52 31.18-2.81 12.39 0.82 24.85 2.83 36.5 7.24 8.1799 5.26 15.12 12.49 19.76 21.08 6.75 12.3 9.9901 26.44 9.7001 40.44 0.08 12.61 1.46 25.6-2.39 37.84-1.55 5.31-4.3 10.18-7.63 14.58 8.79 5.33 16.88 11.89 26.23 16.29 6.92 3.28 14.67 1.24 21.85 0.04 28.96-5.41 58.55-5.31 87.9-4.64 25.23 1.09 50.5 2.12 75.55 5.52 18.57 2.48 36.87 6.94 54.47 13.38 22.45 8.26 44.09 18.48 65.96 28.15 17.05 7.68 34.83 13.76 53.06 17.99 25.75 6 52.15 8.32 78.48 10.01 5.11 0.24 10.26 1.3 15.38 0.78 16.1-6.84 31.77-14.71 47.36-22.65 9.87-4.79 19.79-9.89 30.61-12.17 6.25-1.33 13.19-1.21 18.79 2.2 5.89 3.61 9.49 9.9 11.88 16.21 4.64 12.56 3.13 26.59-1.3101 38.98 5.9501 3.63 11.56 9.06 12.63 16.27 1.2001 9.67-3.76 18.59-8.23 26.78-18.32 31.32-39.63 60.75-60.57 90.33-11.39 15.69-22.58 31.52-34.19 47.05 3.4501 1.2 3.97 4.92 2.9601 8.05-4.4601 14.36-14.88 26.15-27.02 34.68-9.4501 6.75-19.83 12.1-30.45 16.73-10.59 4.34-22.36 3.58-33.45 2.12-22.1-3.4-43.49-10.06-65.04-15.81-44.42-12.41-89.77-22.69-135.96-25.08-28.39-2.05-57.07-0.08-84.9 5.87-22.14 4.54-43.74 11.39-64.86 19.37-2.22 0.84-4.41 1.71-6.6 2.58-1.65 0.64-3.29 1.29-4.91 1.96-28.27 11.57-55.66 25.16-83.51 37.68-1.67 0.56-2.76 1.93-3.39 3.5099-5.47 11.78-11.29 23.38-17.23 34.92-3.66 7.85-8.79 15.06-11.37 23.38-3.46 14.27-1.42 29.15 0.83 43.45-3.4099-1.54-6.86-2.99-10.28-4.48 0.2899-13.37 1.01-26.8 3.5-39.97 1.2899-7.1 4.4199-13.67 7.72-20.02 5.58-10.75 11.1-21.7 13.73-33.6-9.08 3.22-18.07 6.77-27.49 8.86-18.36 4.39-37.53 2.12-55.77-1.7-30.41-6.85-60.03-20.43-82.45-42.47-13.7-13.41-23.9-30.46-28.53-49.1-3.1-12.68-3.86-25.89-2.43-38.86 1.72-17.52 7.39-34.31 13.34-50.77 9.92-26.25 22.75-52.16 42.63-72.35 10.24-10.21 22.61-18.88 36.82-22.34 6.8-1.73 13.82-0.24 20.58 0.91-14.4 3.02-28.5 8.52-40.16 17.66-7.52 5.78-13.14 13.54-19.13 20.8-18.05 22.34-31.66 48.39-38.69 76.28-5.16 20.4-7.82 41.93-3.72 62.77 3.21 16.85 11.54 32.57 23.27 45.04 12.71 13.55 28.58 23.72 45.09 32.02 15.78 8.0099 33.32 12.72 51.05 13.08 18.01 0.55 35.92-2.87 53.08-8.12 20.22-6.21 39.84-14.24 59.17-22.81 32.69-15.13 65.52-30.67 100.62-39.45 62.99-16.68 129.55-14.19 193.16-2.34 32.5 5.86 64.21 15.26 95.82 24.68 8.9301 2.56 17.86 5.27 27.07 6.67 15.98 1.97 31.99-3.26 45.76-11.09 9.65-5.64 18.69-12.53 26.11-20.93 3.6801-4.08 5.6901-9.35 6.17-14.79-22.91 5.54-46.71 3.9-70.02 2.79-45.59-2.97-90.87-9.3701-136.04-16.03-31.7-4.85-63.33-10.1-94.9-15.65-24.48-4.43-49.54-3.23-74.16-0.77-48.1 4.99-95.25 16.16-142.94 23.77-11.92 1.79-23.9 3.42-35.95 3.76-8.52 0.24-17.32-0.2-25.26-3.57-6.6899-2.73-12.63-7.66-15.76-14.25-3.83-7.68-3.76-16.56-2.85-24.89 1.53-8.65 3.97-17.18 7.6801-25.14-3.0701 10.68-4.4501 22.23-0.88 32.98 3.13 9.34 8.8199 18.89 18.38 22.71 10.39 4.08 21.84 3.43 32.73 2.35 19.71-2.15 39.14-6.16 58.65-9.57 24.39-4.44 48.8-8.71 73.32-12.35 22.84-3.38 45.88-5.92 69-5.75 24.19 0.31 48.26 3.42 72.05 7.69 23.48 4.18 46.99 8.24 70.64 11.4 47.24 6.28 94.67 11.45 142.26 14.37 11.65 0.52 23.37 1.53 35.03 0.4 6.8-0.94 14.49-1.44 19.58-6.67 6.22-6.25 11.09-13.68 16.61-20.53 21.54-27.31 40.53-56.53 58.61-86.21 8.22-14.06 16.88-27.99 23.04-43.11 2.46-5.74 0.97-12.3-2.63-17.19-1.4401 2.24-2.8201 4.52-4.41 6.65-0.89-4.71 0.14-9.45 0.3099-14.18 0.41-8.37 0.79-16.86-0.74-25.15-1.34-6.96-4.1-13.98-9.21-19.03-5.35-4.64-13.12-3.12-19.25-1.13-16.95 5.99-31.56 16.85-47.74 24.45-13.46 5.98-27.76 9.67-41.87 13.74-13.77 3.45-27.47 7.25-41.4 9.98 15.72-6.88 31.79-13 47.31-20.35-15.56-0.87-31.07-2.31-46.54-4.06-12.24-1.4-24.45-3.06-36.57-5.24-15.63-3.18-30.61-8.87-45.28-14.99-20.7-8.69-40.84-18.63-61.38-27.68-13.68-5.95-27.58-11.87-42.36-14.46-28.08-5.09-56.51-8.18-84.99-9.99-25.06-1.38-50.28-2.02-75.28 0.6-18.43 2.2-37.38 6.03-53.13 16.36l-0.85 0.11c0.09-3.37 0.38-6.73 0.6399-10.09-16.59-13.4-34.68-25.33-54.78-32.74-2.85-0.78-3.9701-3.71-5.5801-5.84 2.27-0.16 4.54-0.35 6.8301-0.4 4.01 0.67 7.96 1.74 11.72 3.29 3.1 1.35 6.13 2.88 9.1 4.51 1.8301 1.03 3.64 2.11 5.4501 3.2 8.08-9.4 10.64-22 11.61-34.03 0.76-12 0.0399-24.13-2.4-35.91-2.8101-12.86-10.89-24.81-22.68-30.99-7.4199-3.84-16.23-6.28-24.48-3.85-4.59 1.23-8.53 4-12.11 7.02 6.83 8.09 10.5 18.23 13.55 28.22 1.99 6.71 3.7899 13.47 5.1799 20.33 0.42 2.13 0.72 4.28 0.99 6.45 0.4701 6.21 0.26 12.45-0.0599 18.67-0.22 0.27-0.66 0.82-0.88 1.09-0.15 4.17-1.3 8.21-2.64 12.14l-0.0601 0.15c-5.7899 17.06-19.14 31.47-36.08 37.83-10.5 3.77-22.48 6.08-33.22 2.03-9.6801-3.59-15.67-13.01-18.55-22.5-4.6699-15.82-4.0499-32.74-1.24-48.84 3.27-16.33 8.15-32.64 17-46.87 4.3201-7 10.3-12.84 17.36-17.06-7.75-0.64-15.53 0.06-23.16 1.45-8.26 1.53-16.88 2.35-24.39 6.38-10.11 5.2-17.57 14.33-23.04 24.1-8.69 15.43-13.18 32.69-18.38 49.49-5.25 14.94-12.25 29.29-20.36 42.87 1.87-6.7 4.57-13.13 6.41-19.84 7.8-23.74 12.99-48.35 22.62-71.49-9.97 6.15-19.78 12.59-30.2 17.99-16.92 9-35.02 15.45-52.25 23.78-13.14 6.31-25.72 13.81-37.32 22.64-16.13 12.25-32.39 24.32-48.86 36.12-14.59 10.24-28.76 21.34-44.97 28.99-3.78 1.91-7.98 3.12-11.31 5.83-3.58 3.16-6.27 7.18-8.92 11.12-8.15 12.68-13.9 26.71-19.09 40.81-7.74 21.35-13.54 43.34-18.69 65.43-9.45 40.47-17.91 81.19-24.34 122.25-3.11 21.14-6.17 42.4-6.04 63.81-3.09-4.84-5.44-10.11-7.7-15.37 3.48-41.09 10.21-81.85 17.7-122.39 6.56-34.04 14-68.02 25.06-100.92 9.26-27.12 21.33-53.89 40.23-75.73 7.1-0.54 13.84-3.23 19.96-6.76 11.63-6.72 22.38-14.81 33.09-22.89 18-13.71 35.62-27.91 53.95-41.18 11.42-8.15 23-16.18 35.56-22.48 7.5099-3.81 15.65-6.15 23.37-9.48 21.13-8.89 41.32-19.95 60.59-32.35 4.77-3.2 9.95-5.99 13.77-10.39 5.13-5.82 11.72-10.11 18.63-13.52 12.17-5.18 25.36-7.85 38.56-8.24 6.0597-0.2901 11.98 1.1599 17.93 2.1099m17.83 7.4c3.1801 1.9 6.4601 3.64 9.4601 5.82 2.51-2.26 5.0599-4.49 7.59-6.73-5.5901-1.86-11.68-1.47-17.05 0.91m-19.23 4.14c-7.02 1.97-12.99 6.7-17.37 12.43-7.65 9.92-11.08 22.27-13.8 34.3-3.3401 15.94-5 32.43-2.9801 48.66 1.3101 7.98 3.05 16.71 9.13 22.54 5.4501 5.15 13.45 6.15 20.62 5.25 22.71-3.21 43.59-20.85 47.87-43.83 2.89-15.02 0.0801-30.43-3.86-45-3.2799-11.05-7.89-22.51-17.11-29.95-6.18-5.12-14.85-6.62-22.5-4.4z" fill="#008300" stroke="#008300"/>
	<path d="m1104.7 269.51c5.37-2.38 11.46-2.77 17.05-0.91-2.53 2.24-5.08 4.47-7.59 6.73-3-2.18-6.28-3.92-9.46-5.82z" fill="#399B39" stroke="#399B39"/>
	<path d="m1055.3 271.42c7.6299-1.39 15.41-2.09 23.16-1.45-7.0599 4.22-13.04 10.06-17.36 17.06-8.85 14.23-13.73 30.54-17 46.87-2.8099 16.1-3.4299 33.02 1.24 48.84 2.88 9.49 8.87 18.91 18.55 22.5 10.74 4.05 22.72 1.74 33.22-2.03 16.94-6.36 30.29-20.77 36.08-37.83l0.2101 0.02 0.6699 0.09c1.61 2.13 2.7301 5.06 5.5801 5.84 20.1 7.41 38.19 19.34 54.78 32.74-0.2599 3.36-0.5499 6.72-0.6399 10.09l0.85-0.11c-12.48 13.35-21.59 30.41-24.09 48.66-0.77 6.65-0.9501 13.68 1.6599 19.98 1.3101 3.17 4.11 6.27 7.8101 6.14 4.9099-0.08 8.7-3.67 12.25-6.64 20.52-17.81 40.09-36.76 61.71-53.29 7.13-5.34 14.39-10.68 22.59-14.3 3.1801-1.29 6.86-2.55 10.26-1.3 3.15 1.54 3.61 5.49 3.4 8.62-0.54 7.41-3.4399 14.38-6.0699 21.25-7.9601 19.54-17.76 38.31-24.89 58.19-3.16 9.24-6.1901 18.8-6.0901 28.67 0.05 5.86 2.0901 12.24 7.16 15.66 6.25 4.27 14.24 4.48 21.52 3.85 13.68-1.5 25.93-8.71 36.67-16.91 15.53-12.05 28.54-26.88 42.37-40.75 5.5699-5.47 11.24-11.03 18.08-14.91 4.02-2.25 9.53-3.5 13.5-0.49 3.86 2.87 3.9 8.2 3.55 12.55-1.0601 10.27-4.3 20.19-5.42 30.46-0.6801 6.81-0.52 14.41 3.85 20.08 3.4301 4.56 9.05 6.72 14.51 7.7 10.11 1.8 20.84 0.5 30.04-4.17 10.44-4.94 18.55-13.38 26.49-21.53 4.38-4.36 8.5699-9.3 14.39-11.76 4.9399-2.07 10.66 0.66 13.35 5.01 4.65 7.21 3.85 16.17 5.49 24.25 0.41 2.59 1.9 6.21 5.15 5.71 5.61-0.98 9.87-5.21 14.18-8.63 25.4-21.98 46.7-48.9 75.57-66.7 15.47 1.75 30.98 3.19 46.54 4.06-15.52 7.35-31.59 13.47-47.31 20.35 13.93-2.73 27.63-6.53 41.4-9.98 8.12 4.51 17.82 4.6 26.82 3.53 7.0801-0.81 13.47-4.22 19.34-8.08 11.09-7.19 21.48-15.53 33.31-21.53 5.45-2.71 11.99-4.82 17.93-2.34 5.7 2.26 8.37 8.23 12.9 11.98 2.16 1.91 5.25 1.47 7.9301 1.8-0.04-0.84-0.12-2.54-0.16-3.39 1.53 8.29 1.15 16.78 0.74 25.15-0.1699 4.73-1.2 9.47-0.3099 14.18 1.59-2.13 2.97-4.41 4.41-6.65 3.6 4.89 5.09 11.45 2.63 17.19-6.16 15.12-14.82 29.05-23.04 43.11-18.08 29.68-37.07 58.9-58.61 86.21-5.52 6.85-10.39 14.28-16.61 20.53-5.0901 5.23-12.78 5.73-19.58 6.67-11.66 1.13-23.38 0.12-35.03-0.4-47.59-2.92-95.02-8.09-142.26-14.37-23.65-3.16-47.16-7.22-70.64-11.4-23.79-4.27-47.86-7.38-72.05-7.69-23.12-0.17-46.16 2.37-69 5.75-24.52 3.64-48.93 7.91-73.32 12.35-19.51 3.41-38.94 7.42-58.65 9.57-10.89 1.08-22.34 1.73-32.73-2.35-9.5601-3.82-15.25-13.37-18.38-22.71-3.5701-10.75-2.1901-22.3 0.88-32.98-3.7101 7.96-6.15 16.49-7.6801 25.14-1.09 0.44-2.52 0.61-2.91 1.94-3.6799 7.77-6.9399 16.18-6.2999 24.95 0.12 7.69 4.14 15.28 10.49 19.62 11.07 6.41 24.29 5.4301 36.6 5.41 9.08 0.33 18.11-0.86 27.13-1.71 25.73-2.66 51.29-6.66 76.89-10.29 32.93-4.26 65.77-9.54 98.95-11.39 12.28-1.25 24.65-0.58 36.98-0.75 32.33-0.55 65.39 3.73 95.08 17.13 9.0599 3.94 16.73 10.41 25.69 14.54-0.4099 0.21-1.24 0.63-1.6499 0.85-63.61-11.85-130.17-14.34-193.16 2.34-35.1 8.78-67.93 24.32-100.62 39.45-19.33 8.57-38.95 16.6-59.17 22.81-17.16 5.25-35.07 8.67-53.08 8.12-17.73-0.36-35.27-5.07-51.05-13.08-16.51-8.3-32.38-18.47-45.09-32.02-11.73-12.47-20.06-28.19-23.27-45.04-4.1-20.84-1.44-42.37 3.72-62.77 7.03-27.89 20.64-53.94 38.69-76.28 5.99-7.26 11.61-15.02 19.13-20.8 11.66-9.14 25.76-14.64 40.16-17.66-6.7599-1.15-13.78-2.64-20.58-0.91-14.21 3.46-26.58 12.13-36.82 22.34-19.88 20.19-32.71 46.1-42.63 72.35-5.95 16.46-11.62 33.25-13.34 50.77-1.43 12.97-0.67 26.18 2.43 38.86-0.23 0.44-0.68 1.34-0.91 1.79-0.4-1.02-0.8-2.03-1.18-3.03-10.82-4.2-21.59-9.01-30.86-16.1-11.87-8.55-21.42-20.4-27.1-33.9-5.48-12.77-7.8-26.79-7.4-40.65-0.6-30.24 5.3-60.55 16.48-88.63 11.75-30.42 30.19-57.9 51.85-82.13 5.06-4.96 9.68-10.35 14.61-15.44 6.2-5.09 11.52-11.13 17.79-16.15 5.52-4.55 10.66-9.68 16.89-13.27-1.84 6.71-4.54 13.14-6.41 19.84 8.11-13.58 15.11-27.93 20.36-42.87 5.2-16.8 9.69-34.06 18.38-49.49 5.47-9.77 12.93-18.9 23.04-24.1 7.5099-4.0299 16.13-4.8499 24.39-6.3799m552.78 307.3c-10.17 1.34-21.06 4.25-28.03 12.3-6.02 6.98-7.3301 16.4-9.75 24.97-2.9 11.21-6.5601 22.21-9.52 33.4 5.0399-4.92 9.1799-10.64 13.07-16.5l-0.47 1.75c9.45-8.58 9.67-22.49 16.83-32.5 4.17-5.94 11.75-8.32 18.75-8.02 8.76 0.38 17.55 2.42 25.37 6.44 3.1901 1.55 5.63 4.47 9.1901 5.29 7.7 5.02 14.52 11.53 22.85 15.5-1.1-3.7-3.87-6.47-6.29-9.34-5.61-6.47-12.35-11.83-19.27-16.83-5.1899-3.79-8.9099-9.12-13.62-13.41-5.2401-4.56-12.72-3.89-19.11-3.05m2.28 22.73c-10.26 3.35-18.27 12.47-20.87 22.86-1.33 5.08-0.23 10.76 3.39 14.66 9.1 10.35 26.02 11.68 37.32 4.2401 4.9401-3.68 5.3301-10.57 4.8301-16.2-1.04-8.55-4.51-17.27-11.07-23.07-3.6598-3.3301-9.0099-4.1801-13.6-2.4901z" fill="#3EA43E" stroke="#3EA43E"/>
	<path d="m1129.2 271.31c8.25-2.43 17.06 0.01 24.48 3.85 11.79 6.18 19.87 18.13 22.68 30.99 2.4399 11.78 3.16 23.91 2.4 35.91-0.9701 12.03-3.53 24.63-11.61 34.03-1.8101-1.09-3.62-2.17-5.4501-3.2 11.85-11.23 13.14-30.89 5.01-44.61-3.62-6.13-10.46-11.16-17.88-10.06-5.4399 0.71-9.71 4.54-13.01 8.66-1.39-6.86-3.1899-13.62-5.1799-20.33-3.05-9.99-6.7201-20.13-13.55-28.22 3.5799-3.02 7.5199-5.79 12.11-7.02z" fill="#F3F3F3" stroke="#F3F3F3"/>
	<path d="m1085.5 273.65c7.65-2.22 16.32-0.72 22.5 4.4 9.22 7.44 13.83 18.9 17.11 29.95 3.9401 14.57 6.75 29.98 3.86 45-4.2799 22.98-25.16 40.62-47.87 43.83-7.1699 0.9-15.17-0.1-20.62-5.25-6.08-5.83-7.8199-14.56-9.13-22.54-2.0199-16.23-0.36-32.72 2.9801-48.66 2.72-12.03 6.1499-24.38 13.8-34.3 4.38-5.73 10.35-10.46 17.37-12.43m-1.21 40.7c-6.67 1.72-11.96 6.75-15.48 12.5-9.17 15.63-8.78 36.78 1.6499 51.72 4.4401 6.18 11.61 11.09 19.5 10.63 7.9901-0.21 14.79-5.75 18.98-12.21 7.5699-11.99 8.8999-27.36 4.76-40.79-2.4801-7.79-7.0701-15.33-14.24-19.58-4.5-2.76-10.07-3.49-15.17-2.27z" fill="#F3F3F3" stroke="#F3F3F3"/>
	<path d="m967.97 320.92c10.42-5.4 20.23-11.84 30.2-17.99-9.63 23.14-14.82 47.75-22.62 71.49-6.23 3.59-11.37 8.72-16.89 13.27-6.27 5.02-11.59 11.06-17.79 16.15-4.93 5.09-9.55 10.48-14.61 15.44-21.66 24.23-40.1 51.71-51.85 82.13-11.18 28.08-17.08 58.39-16.48 88.63-0.4 13.86 1.92 27.88 7.4 40.65 5.68 13.5 15.23 25.35 27.1 33.9 9.27 7.09 20.04 11.9 30.86 16.1 0.38 1 0.78 2.01 1.18 3.03 0.23-0.45 0.6801-1.35 0.91-1.79 4.63 18.64 14.83 35.69 28.53 49.1 22.42 22.04 52.04 35.62 82.45 42.47 18.24 3.82 37.41 6.09 55.77 1.7 9.42-2.09 18.41-5.64 27.49-8.86-2.63 11.9-8.15 22.85-13.73 33.6-3.3 6.35-6.4301 12.92-7.72 20.02-2.49 13.17-3.2101 26.6-3.5 39.97-25.05-10.44-50.83-19.24-77.1-26.02-42.67-12.2-86.62-19.42-130.7-24.1-26.96-3.07-53.75-7.72-80.03-14.5-29.39-7.65-58.39-17.94-84.56-33.56-8.4-4.89-16.06-10.88-23.79-16.73-0.8-1.1-1.58-2.2-2.31-3.32-0.13-21.41 2.93-42.67 6.04-63.81 6.4301-41.06 14.89-81.78 24.34-122.25 5.15-22.09 10.95-44.08 18.69-65.43 5.19-14.1 10.94-28.13 19.09-40.81 2.65-3.94 5.34-7.96 8.92-11.12 3.33-2.71 7.53-3.92 11.31-5.83 16.21-7.65 30.38-18.75 44.97-28.99 16.47-11.8 32.73-23.87 48.86-36.12 11.6-8.83 24.18-16.33 37.32-22.64 17.23-8.33 35.33-14.78 52.25-23.78z" fill="#399B39" stroke="#399B39"/>
	<path d="m1084.3 314.35c5.1-1.22 10.67-0.49 15.17 2.27 7.17 4.25 11.76 11.79 14.24 19.58 4.1399 13.43 2.8099 28.8-4.76 40.79-4.1901 6.46-10.99 12-18.98 12.21-7.8899 0.46-15.06-4.45-19.5-10.63-10.43-14.94-10.82-36.09-1.6499-51.72 3.5201-5.75 8.81-10.78 15.48-12.5m0.97 5.97c-8.15 3.1-13.31 11.45-15.3 19.64-2.34 9.14 0.92 18.3 3.39 27.02 1.0601 3.35 2.7101 7.15 6.36 8.31 7.0801 2.23 16.22 3.14 21.59-3.11 6.13-6.77 8.6699-16.51 7.22-25.47-1.16-7.5-2.34-15.69-7.76-21.45-3.9801-3.87-10-6.14-15.5-4.94z" fill="#48829A" stroke="#48829A"/>
	<path d="m1135.8 326.88c3.3-4.12 7.5701-7.95 13.01-8.66 7.42-1.1 14.26 3.93 17.88 10.06 8.13 13.72 6.84 33.38-5.01 44.61-2.97-1.63-6-3.16-9.1-4.51 3.12-1.67 6.6801-3.02 8.86-5.97 7.14-9.33 5.41-22.49 0.5701-32.44-2.8101-4.96-9.04-8.1-14.66-6.6-4.63 1.88-7.25 6.47-10.56 9.96-0.2701-2.17-0.57-4.32-0.99-6.45z" fill="#48829A" stroke="#48829A"/>
	<path d="m1085.2 320.32c5.5-1.2 11.52 1.07 15.5 4.94 5.42 5.76 6.6 13.95 7.76 21.45 1.45 8.96-1.09 18.7-7.22 25.47-5.37 6.25-14.51 5.34-21.59 3.11-3.6499-1.16-5.2999-4.96-6.36-8.31-2.47-8.72-5.73-17.88-3.39-27.02 1.9902-8.19 7.1501-16.54 15.3-19.64m-5.3001 15.47c-3.1299 1.88-4.58 5.41-4.33 8.97-1.77 7.52-0.63 16.17 4.4301 22.24 2.83 3.48 7.6599 5.6 12.08 4.17 5.54-1.75 8.95-7.22 10.4-12.57 1.73-7.01 1.03-14.93-3.05-21.02-2.34-3.49-6.1699-6.34-10.52-6.22-3.53 0.01-6.57 2.09-9.0101 4.43z" fill="#5D97B0" stroke="#5D97B0"/>
	<path d="m1147.4 323.37c5.62-1.5 11.85 1.64 14.66 6.6 4.84 9.95 6.5699 23.11-0.5701 32.44-2.1799 2.95-5.74 4.3-8.86 5.97-3.76-1.55-7.71-2.62-11.72-3.29-1.98-4.15-3.4701-8.53-4.13-13.09 0.3199-6.22 0.53-12.46 0.0599-18.67 3.3102-3.49 5.9302-8.08 10.56-9.96m-4.06 11.74c-3.59 1.65-4.8199 6.4-2.63 9.65l-0.8999-0.75c-0.04 4.13-0.0901 8.48 1.84 12.26 1.6899 3.6 5.0599 7.05 9.3199 6.96 3.2001 0.09 5.98-2.04 7.8-4.51 3.4399-4.83 4.01-11.27 2.5699-16.9-1.2999-4.45-4.39-9.19-9.3199-9.9-3.32-0.61-6.01 1.65-8.68 3.19z" fill="#5D97B0" stroke="#5D97B0"/>
	<path d="m1079.9 335.79c2.4401-2.34 5.4801-4.42 9.01-4.43 4.3501-0.12 8.1801 2.73 10.52 6.22 4.0801 6.09 4.78 14.01 3.05 21.02-1.4501 5.35-4.86 10.82-10.4 12.57-4.42 1.43-9.25-0.69-12.08-4.17-5.0601-6.07-6.2001-14.72-4.4301-22.24 1.15 2.75 3.1 5.72 6.42 5.87 4.47 0.26 7.8099-4.48 7.01-8.68-0.2898-4.43-4.9198-7.35-9.0999-6.16z" fill="#2A2929" stroke="#2A2929"/>
	<path d="m1143.3 335.11c2.67-1.54 5.36-3.8 8.6801-3.19 4.9299 0.71 8.02 5.45 9.3199 9.9 1.4401 5.63 0.87 12.07-2.5699 16.9-1.8201 2.47-4.6 4.6-7.8 4.51-4.26 0.09-7.63-3.36-9.3199-6.96-1.9301-3.78-1.88-8.13-1.84-12.26l0.8999 0.75c2.02 2.63 6.1801 2.94 8.11 0.04 3.3199-3.93-0.2001-10.77-5.4801-9.69z" fill="#2A2929" stroke="#2A2929"/>
	<path d="m1075.6 344.76c-0.25-3.56 1.2001-7.09 4.33-8.97 4.1801-1.19 8.8101 1.73 9.1001 6.16 0.7999 4.2-2.54 8.94-7.01 8.68-3.3201-0.15-5.2701-3.12-6.4201-5.87z" fill="#fff" stroke="#fff"/>
	<path d="m1140.7 344.76c-2.1899-3.25-0.96-8 2.63-9.65 5.28-1.08 8.8 5.76 5.48 9.69-1.93 2.9-6.09 2.59-8.11-0.04z" fill="#fff" stroke="#fff"/>
	<path d="m1135.9 353.09c0.22-0.27 0.66-0.82 0.88-1.09 0.6599 4.56 2.15 8.94 4.13 13.09-2.29 0.05-4.5601 0.24-6.8301 0.4l-0.6699-0.09c-0.04-0.04-0.11-0.13-0.15-0.17 1.34-3.93 2.49-7.97 2.64-12.14z" fill="#488299" stroke="#488299"/>
	<path d="m1133.3 365.23c0.04 0.04 0.11 0.13 0.15 0.17l-0.2101-0.02 0.0601-0.15z" fill="#C9E4C1" stroke="#C9E4C1"/>
	<path d="m1247.8 397.69c25-2.62 50.22-1.98 75.28-0.6 28.48 1.81 56.91 4.9 84.99 9.99 14.78 2.59 28.68 8.51 42.36 14.46 20.54 9.05 40.68 18.99 61.38 27.68 14.67 6.12 29.65 11.81 45.28 14.99 12.12 2.18 24.33 3.84 36.57 5.24-28.87 17.8-50.17 44.72-75.57 66.7-4.3099 3.42-8.5699 7.65-14.18 8.63-3.25 0.5-4.74-3.1201-5.15-5.71-1.64-8.08-0.84-17.04-5.49-24.25-2.6899-4.35-8.41-7.08-13.35-5.01-5.8201 2.46-10.01 7.4-14.39 11.76-7.9401 8.15-16.05 16.59-26.49 21.53-9.2001 4.67-19.93 5.97-30.04 4.17-5.46-0.98-11.08-3.14-14.51-7.7-4.37-5.67-4.53-13.27-3.85-20.08 1.12-10.27 4.36-20.19 5.42-30.46 0.35-4.35 0.3099-9.68-3.55-12.55-3.97-3.01-9.48-1.76-13.5 0.49-6.84 3.88-12.51 9.44-18.08 14.91-13.83 13.87-26.84 28.7-42.37 40.75-10.74 8.2-22.99 15.41-36.67 16.91-7.28 0.63-15.27 0.42-21.52-3.85-5.0699-3.42-7.11-9.8-7.16-15.66-0.1-9.8701 2.9301-19.43 6.0901-28.67 7.13-19.88 16.93-38.65 24.89-58.19 2.63-6.87 5.5299-13.84 6.0699-21.25 0.21-3.13-0.25-7.08-3.4-8.62-3.4-1.25-7.08 0.01-10.26 1.3-8.2 3.62-15.46 8.96-22.59 14.3-21.62 16.53-41.19 35.48-61.71 53.29-3.55 2.97-7.3401 6.56-12.25 6.64-3.7001 0.13-6.5-2.97-7.8101-6.14-2.61-6.3-2.4299-13.33-1.6599-19.98 2.5-18.25 11.61-35.31 24.09-48.66 15.75-10.33 34.7-14.16 53.13-16.36z" fill="#6CC36C" stroke="#6CC36C"/>
	<path d="m1723.9 445.69c6.13-1.99 13.9-3.51 19.25 1.13 5.11 5.05 7.87 12.07 9.21 19.03 0.04 0.85 0.12 2.55 0.16 3.39-2.6801-0.33-5.77 0.11-7.9301-1.8-4.5299-3.75-7.2-9.72-12.9-11.98-5.9401-2.48-12.48-0.37-17.93 2.34-11.83 6-22.22 14.34-33.31 21.53-5.87 3.86-12.26 7.27-19.34 8.08-9 1.07-18.7 0.98-26.82-3.53 14.11-4.07 28.41-7.76 41.87-13.74 16.18-7.6 30.79-18.46 47.74-24.45z" fill="#6CC36C" stroke="#6CC36C"/>
	<path d="m1608.1 578.72c6.39-0.84 13.87-1.5099 19.11 3.05 4.7101 4.29 8.4301 9.62 13.62 13.41 6.92 5 13.66 10.36 19.27 16.83 2.42 2.87 5.1901 5.64 6.29 9.34-8.33-3.97-15.15-10.48-22.85-15.5-6.4301-4.63-11.27-11.14-17.97-15.38-7.77-4.84-17.49-3.93-26.02-2.0699-8.4 2.0099-14.16 9.44-17.02 17.21-3.8101 8.84-3.03 19.17-8.66 27.28-3.89 5.86-8.03 11.58-13.07 16.5 2.96-11.19 6.62-22.19 9.52-33.4 2.4199-8.57 3.73-17.99 9.75-24.97 6.9699-8.0501 17.86-10.96 28.03-12.3z" fill="#008300" stroke="#008300"/>
	<path d="m1599.5 588.4c8.5299-1.86 18.25-2.77 26.02 2.0699 6.7 4.2401 11.54 10.75 17.97 15.38-3.5601-0.8199-6-3.74-9.1901-5.29-7.8199-4.02-16.61-6.06-25.37-6.44-7-0.3-14.58 2.08-18.75 8.02-7.1599 10.01-7.38 23.92-16.83 32.5l0.47-1.75c5.63-8.11 4.85-18.44 8.66-27.28 2.8601-7.7699 8.6201-15.2 17.02-17.21z" fill="#6CC36C" stroke="#6CC36C"/>
	<path d="m1610.4 601.45c4.59-1.69 9.9401-0.84 13.6 2.49 6.5601 5.8 10.03 14.52 11.07 23.07 0.5 5.63 0.11 12.52-4.8301 16.2-11.3 7.44-28.22 6.11-37.32-4.2401-3.62-3.9-4.72-9.58-3.39-14.66 2.5999-10.39 10.61-19.51 20.87-22.86m13.98 10.9c-2.5599 5.42-6.2999 11.04-12.32 12.9-5.65 1.7-11.29-0.93-16.35-3.2-0.65 6.62 1.2799 14.27 7.3199 17.9 5.74 2.98 13 4.23 19.01 1.26 4.02-1.88 7.3-5.65 7.73-10.19 0.62-6.53-0.91-13.69-5.39-18.67z" fill="#008300" stroke="#008300"/>
	<path d="m1624.4 612.35c4.48 4.98 6.01 12.14 5.39 18.67-0.4299 4.54-3.71 8.31-7.73 10.19-6.01 2.97-13.27 1.72-19.01-1.26-6.04-3.63-7.97-11.28-7.3199-17.9 5.0599 2.27 10.7 4.9 16.35 3.2 6.0199-1.86 9.7599-7.48 12.32-12.9z" fill="#399B39" stroke="#399B39"/>
	<path d="m1060.2 635.09c0.39-1.33 1.8201-1.5 2.91-1.94-0.91 8.33-0.98 17.21 2.85 24.89 3.13 6.59 9.0701 11.52 15.76 14.25 7.9401 3.37 16.74 3.81 25.26 3.57 12.05-0.34 24.03-1.97 35.95-3.76 47.69-7.61 94.84-18.78 142.94-23.77 24.62-2.46 49.68-3.66 74.16 0.77 31.57 5.55 63.2 10.8 94.9 15.65 45.17 6.66 90.45 13.06 136.04 16.03 23.31 1.11 47.11 2.75 70.02-2.79-0.48 5.44-2.49 10.71-6.17 14.79-7.4199 8.4-16.46 15.29-26.11 20.93-13.77 7.83-29.78 13.06-45.76 11.09-9.21-1.4-18.14-4.11-27.07-6.67-31.61-9.42-63.32-18.82-95.82-24.68 0.4099-0.22 1.24-0.64 1.6499-0.85-8.96-4.13-16.63-10.6-25.69-14.54-29.69-13.4-62.75-17.68-95.08-17.13-12.33 0.17-24.7-0.5-36.98 0.75-33.18 1.85-66.02 7.13-98.95 11.39-25.6 3.63-51.16 7.63-76.89 10.29-9.02 0.85-18.05 2.04-27.13 1.71-12.31 0.02-25.53 1-36.6-5.41-6.35-4.34-10.37-11.93-10.49-19.62-0.64-8.77 2.62-17.18 6.3-24.95z" fill="#399B39" stroke="#399B39"/>
	<path d="m1224.5 719.51c2.1899-0.87 4.38-1.74 6.6-2.58 9.73 20.2 17.32 41.35 24.52 62.56 7.5499 23.17 14.96 46.47 19.6 70.42-0.14 2.26-0.7 4.5-1.67 6.56-0.5399 0-1.63-0.0099-2.1699-0.02-10.22-39.86-23.16-79.05-38.93-117.07-2.61-6.64-5.69-13.1-7.95-19.87z" fill="#BABABA" stroke="#BABABA"/>
	<path d="m1219.6 721.47c1.62-0.67 3.26-1.3199 4.91-1.96 2.26 6.77 5.34 13.23 7.95 19.87 15.77 38.02 28.71 77.21 38.93 117.07 0.5399 0.01 1.63 0.02 2.1699 0.02-1.9299 3.61-4.2799 6.97-6.84 10.16-1-3.57-1.76-7.18-2.37-10.82l-0.21-1.3c-1.3301-7.3-3.1801-14.5-4.9501-21.7-1.38-6.65-2.51-13.42-5.35-19.64-9.6798-31.17-20.92-61.88-34.24-91.7z" fill="#CDCCCC" stroke="#CDCCCC"/>
	<path d="m683.17 868.04c-0.37-47.26-1.09-94.77 5.31-141.71 2.26 5.26 4.61 10.53 7.7 15.37 0.73 1.12 1.51 2.22 2.31 3.32 9.37 15.13 23.1 27.32 38.49 36.1 17.9 9.52 37.72 14.56 57.28 19.43 40.12 9.48 80.85 16.08 121.37 23.58 7.81 1.56 15.68 2.83 23.48 4.42 17.03 3.6 34.07 7.37 50.63 12.78 18.51 5.99 36.6 13.99 52.16 25.83 11.96 8.9 22.02 20.07 31.16 31.78 11.08 14.33 22.07 28.72 33.08 43.1 1.15 1.53 2.3099 3.1 3.48 4.65 7.0601 9.26 14.01 18.58 21.07 27.84 3.63 5.02 7.4401 9.9 11.19 14.84 3.5599 7.11 7.05 14.24 10.46 21.42-1.4199 1.19-2.83 2.38-4.23 3.57-8.22-14.41-15.87-29.26-26.18-42.35-24.75-29.64-45.8-62.39-73.2-89.77-11.45-11.17-23.9-22.03-39.08-27.73-18.15-6.82-36.95-11.72-55.78-16.27-41.14-9.87-83.07-15.74-124.76-22.66-23.72-4.03-47.44-8.68-70.24-16.51-20.41-7.37-40.28-17.66-55.66-33.24-3.42-3.27-6.06-7.27-9.7401-10.27-2.62 16.67-2.8 33.61-3.34 50.45-0.46 34.34 1.17 68.64 2.24 102.95 1.97 52.04 4.66 104.05 7.66 156.04 1.39 22.03 2.46 44.07 3.52 66.12 1.7 43.15-0.91 86.33-4.74 129.3 2.92-0.0901 6.18-0.8401 8.76 0.97 5.97 3.78 9.58 10.16 12.74 16.28 7.46 16.16 11.76 33.52 16.26 50.68 5.13 20.92 8.75 42.82 4.98 64.29-0.76 5.2-3.13 9.98-4.24 15.09 4.38 4.12 10.05 6.52 15.07 9.77 17.14 9.54 35.32 17.84 54.78 21.21 11.46 2.27 23.3 1.8101 34.79-0.0499 20.83-3.0701 41.2-8.6 61.47-14.22 23.26-6.6599 46.42-13.65 69.73-20.16 16.95-4.4301 34.09-8.17 50.78-13.56 40.32-12.67 79.22-29.33 118.1-45.78 19.39-8.3899 38.77-16.83 57.67-26.27 10.79-5.2201 21.35-10.98 31.33-17.63 6.73-4.54 14.16-9.4 17.38-17.2 0.6699-4.76-1.16-9.33-2.37-13.83-10.69-36.69-23.35-72.77-36.31-108.71-14.75-40.44-30.64-80.48-48.48-119.66 1.14-1.36 2.29-2.71 3.46-4.0601 0.67 1.5 1.37 3.02 2.0701 4.54 0.45 1.01 0.9099 2.03 1.39 3.0699 0.7899 1.78 1.59 3.5601 2.3999 5.3601 0.6901 1.59 1.39 3.2 2.1101 4.8099 33.28 75.82 63.48 153.13 86.94 232.59-0.96 1.02-1.89 2.0701-2.85 3.1001-1.52 1.5599-3.1 3.0699-4.72 4.5299-7 6.14-14.84 11.19-22.8 15.96-15.7 8.59-32.02 15.97-48.2 23.58-39.39 18.03-79.2 35.26-119.99 49.92-16.69 5.86-33.53 11.4-50.8 15.28-19.4 4.39-38.46 10.17-57.17 16.87-28.91 10.51-58.28 19.8-88.31 26.56-17.79 4.49-36.4 5.9399-54.62 3.52-20.88-2.8101-41.03-10.42-58.86-21.59-8.16-5.2201-16.2-10.85-23-17.78 6.43-9.6801 7.28-21.63 7.51-32.91-0.12-16.68-2.23-33.35-6.25-49.54-2.58-11.76-6.28-23.24-10.48-34.5-2.96-7.84-6.12-16.14-12.79-21.62-3.2599-1.85-7.49-2.6499-10.72-0.2899-0.73 0.48-2.19 1.4299-2.92 1.9099 1.14-26.67 2.5699-53.32 3.59-79.99 1.57-25.35-0.23-50.74-1.31-76.07-4.7397-82.24-9.7897-164.48-11.76-246.85z" fill="#A73C3C" stroke="#A73C3C"/>
	<path d="m698.49 745.02c7.73 5.85 15.39 11.84 23.79 16.73 26.17 15.62 55.17 25.91 84.56 33.56 26.28 6.78 53.07 11.43 80.03 14.5 44.08 4.68 88.03 11.9 130.7 24.1-15.54 1.32-30.49-5.19-45.98-4.3799-8.77-1.41-17.56-2.7401-26.39-3.6-9.85-0.73-19.69-1.79-29.57-1.8-40.52-7.5-81.25-14.1-121.37-23.58-19.56-4.87-39.38-9.91-57.28-19.43-15.39-8.7801-29.12-20.97-38.49-36.1z" fill="#646464" stroke="#646464"/>
	<path d="m693.47 755.56c3.6801 3 6.32 7 9.7401 10.27 15.38 15.58 35.25 25.87 55.66 33.24 22.8 7.83 46.52 12.48 70.24 16.51-9.56 1.35-18.27 5.82-27.13 9.38-8.84 3.63-17.1 8.57-24.61 14.47-3.71 3.03-6.77 7.06-8.14 11.69-1.67 7.4 3.43 14.28 9.11 18.41 8.17 5.22 18.31 4.9399 27.6 4.1299 4.42-0.3199 9.33-1.44 13.33 1.1 3.45 7.58 0.06 16.3 2.82 24.05 0.84 2.49 1.85 4.91 2.81 7.37-8.8 16.61-12.71 35.33-14.3 53.92-1.85 22.4-0.04 44.94 3.64 67.07 3.46 20.42 8.23 40.68 15.37 60.15 5.2 13.86 11.42 27.65 21.08 39.02 5.7 6.5901 13.35 12.38 22.34 13.01 8.7 0.5801 16.96-3.51 23.47-8.99 20.01 1.38 38.26 10.83 55.15 20.98 20.18 13.07 40.34 26.5 62.62 35.81-19.01 5.4399-37.88 11.71-55.59 20.6-9.45 5.08-18.75 10.86-25.93 18.96-4.43 4.62-7.87 10.22-9.46 16.46-3.06 10.06-0.05 20.81 4.62 29.87 6.6 13.58 17.48 24.38 28.39 34.55 8.33 6.6 16.97 13.02 26.69 17.46 27.63 14.26 59.32 18.35 90.07 17.91 22.12-1.25 44.27-3.77 65.81-9.12 20.62-4.9099 40.92-11.26 60.51-19.38 13.93-5.99 27.78-12.77 39.38-22.71 3.15-2.71 6.28-5.46 9.65-7.91-3.2201 7.8-10.65 12.66-17.38 17.2-9.98 6.6499-20.54 12.41-31.33 17.63-18.9 9.4399-38.28 17.88-57.67 26.27-38.88 16.45-77.78 33.11-118.1 45.78-16.69 5.39-33.83 9.13-50.78 13.56-23.31 6.51-46.47 13.5-69.73 20.16-20.27 5.6201-40.64 11.15-61.47 14.22-11.49 1.86-23.33 2.3199-34.79 0.0499-19.46-3.37-37.64-11.67-54.78-21.21-5.02-3.25-10.69-5.65-15.07-9.77 1.11-5.11 3.48-9.89 4.24-15.09 3.77-21.47 0.15-43.37-4.98-64.29-4.5-17.16-8.8-34.52-16.26-50.68-3.16-6.12-6.77-12.5-12.74-16.28-2.58-1.8101-5.84-1.0601-8.76-0.97 3.83-42.97 6.44-86.15 4.74-129.3-1.06-22.05-2.13-44.09-3.52-66.12-3-51.99-5.69-104-7.66-156.04-1.07-34.31-2.7-68.61-2.24-102.95 0.5399-16.84 0.7199-33.78 3.3399-50.45z" fill="#C24141" stroke="#C24141"/>
	<path d="m1231.1 811.99c0.98-3.5 2.8-7.88 6.92-8.37 6.5 0.1 12.55 4.02 15.84 9.55 2.84 6.22 3.97 12.99 5.35 19.64 1.0701 7.34 2.5701 14.63 3.11 22.04 0.4601-0.08 1.38-0.25 1.8401-0.34l0.21 1.3c-2.45 4.28-3.1 9.19-2.52 14.06 1.75-0.87 3.55-1.77 4.89-3.24 2.5601-3.19 4.91-6.55 6.84-10.16 0.9701-2.06 1.53-4.3 1.67-6.56 6.97 0.8701 14.27 3.5 18.5 9.4301 3.12 4.22 3.67 9.65 3.92 14.73 0.1699 3.47-0.63 7.19-3.4501 9.48 3.75 3.1 6.05 7.61 6.9401 12.36 1.6 7.34 0.89 15.77-4.0901 21.74 3.8501-0.31 7.0801 2.62 7.5801 6.38 1.52 11.79-3.79 25.17-15.02 30.37 2.3099 1.29 4.4399 3.18 4.92 5.94 1.61 7.4 0.48 15.21-2.51 22.12 3.84 2.53 6.0599 6.87 6.5499 11.38 1.3101 8.27-2.45 16.66-8.59 22.13 3.15 3.54 6.65 7.2 7.8 11.95 0.6799 9.8999-8.13 18.71-18 18.44-5.25 0.28-10.57 0.0701-15.65-1.36-4.16-1.08-7.87-3.53-10.34-7.05-6.2401 0.89-12.57 1.41-18.86 0.9801-2.34-0.2101-4.7799-0.7301-6.6699-2.14-1.48-1.4701-2.22-3.4701-3.1801-5.25-6.9399 3.4399-14.3 5.88-21.32 9.12-10.51 4.59-20.86 9.5499-31.1 14.7-0.7201-1.61-1.42-3.22-2.1101-4.8099 17.78-7.15 35.48-14.5 53.19-21.84 2.15-0.84 4.37-1.51 6.62-2.1-0.47 1.17-0.87 2.36-1.21 3.59 1.6899 1.79 3.0699 4.49 5.7899 4.78 5.79 0.73 11.64-0.0699 17.38-0.96-0.48-5.26 1.6-10.17 4.86-14.18-5.22-4.01-9.9099-9.83-9.4199-16.79 0.13-6.09 4.62-10.62 8.49-14.8-1.41-0.72-2.79-1.41-4.17-2.09-7.0699 5.4301-15.2 10.24-19.61 18.28-2.3099 4.46-4.89 8.76-7.3099 13.16-0.67 1.23-2.0601 1.72-3.2001 2.38-17.99 8.28-35.84 16.88-53.81 25.21-0.4801-1.0399-0.9401-2.0599-1.39-3.0699 18.16-7.9399 35.94-16.75 53.54-25.86 2.9301-1.21 2.25-4.98 3.51-7.39 4.78-11.78 16.19-18.56 25.36-26.6-0.98-3.25-2.46-7.16-0.0299-10.13 5.1699-6.71 13.42-9.92 20.92-13.28 2.64-1.06 5.3501-1.94 8.0701-2.83-2.59-0.13-5.1901-0.21-7.76-0.47-6.38-0.82-13-0.57-19.03 1.85-8.29 2.9-16.61 7.9-25.72 6.21-20.14 24.79-40.35 49.53-60.93 73.96-1.1699 1.3501-2.3199 2.7001-3.46 4.0601-12.47 14.69-25.02 29.32-38.08 43.49-5.53 5.83-10.95 11.82-17.1 17.02-6.3899 5.3099-15.19 5.73-23.12 5.83-17.65-0.51-35.02-4.24-52.1-8.4299-1.84-0.4701-3.65-0.9701-5.45-1.4501-8.42-2.26-16.8-4.66-25.07-7.38 0.05-1.99 0.14-3.97 0.24-5.9399 18.11 5.74 36.58 10.39 55.31 13.58 12.29 2 24.78 3.62 37.24 2.64 6.1801-0.34 10.13-5.73 14.36-9.53 24.23-24.55 46.58-50.84 69.26-76.79 13.24-15.42 26.48-30.83 39.56-46.38 2.6499-3.29 5.3999-6.52 8.6799-9.19 8.04 2.12 15.58-2.79 22.92-5.37 8.9399-4.9 19.34-2.6 29.03-3.64 6.6799-0.63 14.12-2.02 18.61-7.52 4.3199-5.38 6.38-12.91 4.71-19.67-0.27-2.05-2.4301-2.8-4.21-2.64-5.3201 0.23-10.27 2.44-15.22 4.18 0.4901-1.37 1.04-2.7 1.6001-4.02 5.09-2.09 11.12-3.79 14.15-8.78 2.6101-5.76 1.04-12.33-0.0199-18.26-0.7101-2.25-0.92-5.6-3.66-6.27-5.5601-1.08-10.97 1.17-16.28 2.48 2.8101-5.39 9.71-5.4 14.01-9.0699 4.85-3.27 3.71-9.92 2.88-14.84-1.04-8.08-10.22-10.13-16.66-12.31-2.2799 5.61-4.5699 11.33-8.38 16.11-3.35 4.2-6.71 8.38-10.06 12.58-1.8101-4.27 0.36-8.7 0.21-13.08-0.02-10.98-0.96-21.98-3-32.78-1.2-6.13-2.22-12.37-4.66-18.16-1.8999-4.64-5.98-8.61-11.02-9.48-2.37-0.47-3.89 1.8-4.53 3.73-1.75 5.07-1.9501 10.5-2.54 15.79-0.6899 6.31-0.4 12.77 1.4301 18.88 2.85 10.24 8.8099 19.23 12.39 29.18 3.2 10.79 1.36 22.53-2.6801 32.85-3.21 8.49-9.58 15.16-14.17 22.87-3.12 5.33-6.74 10.77-7.0599 17.14-0.29 5.64-5.48 9.04-9.14 12.66-36.81 32.97-74.17 65.39-113.31 95.58-3.72 2.5601-7.38 6.65-12.37 5.67-8.38-0.9701-16.39-3.8301-24.36-6.4401-17.95-5.9-35.34-13.31-52.88-20.29 1.39-2.0199 3-3.8799 4.7599-5.58 2.65 0.87 5.26 1.85 7.84 2.9501 16.83 7.3799 33.9 14.31 51.47 19.76 5.22 1.3601 10.64 3.4401 16.12 2.4801 5.65-1.76 10.5-5.3301 15.4-8.53 14.55-10.16 28.24-21.49 41.81-32.91 1.4-1.19 2.8101-2.38 4.23-3.57 21.6-18.51 42.86-37.43 63.73-56.76-0.34-6.9901 3.89-12.86 7.66-18.32 7.67-11.11 16.02-22.34 19.19-35.7 2.8199-11.87-0.42-24.36-6-34.94-3.61-6.84-6.1001-14.29-6.7301-22.03-0.71-10.321-1.57-20.901 0.91-31.051m30.02 155.12c-3.46 1.59-7.48 2.86-9.6801 6.19-1.9199 3.56 0.6901 7.61 3.5601 9.75 4.08 3.12 9.49 2.27 14.25 1.89-2.37 4.29-7.55 4.67-11.38 6.97-5.03 4.86-6.34 13.28-3.1801 19.51 2.91 5.02 9.14 6.25 14.43 7.11-2.67 2.59-6.55 2.97-9.54 4.97-1.46 2.16-1.21 4.97-1.45 7.47-0.05 2.7001-0.67 6.28 2.17 7.88 4.74 2.79 10.55 2.3101 15.82 1.89 5.17-0.67 11.09-1.66 14.39-6.17 2.6799-3.5699 1.1899-8.47-1.17-11.78-2.0299-3.12-5.5299-4.64-8.7999-6.06 4.47-4.44 10.84-7.99 12.11-14.68 0.64-5.11 0.85-11.08-2.39-15.38-3.67-1.95-7.92 0.11-11.64 0.96 1.1-1.89 2.61-3.47 4.4301-4.69 4.71-3.03 5.96-8.96 7.24-14.02 1.1899-4.08-1.4-9.86-6.28-9.18-8.0901 0.65-15.5 4.32-22.89 7.37z" fill="#008300" stroke="#008300"/>
	<path d="m1235.4 812.3c0.64-1.93 2.16-4.2 4.53-3.73 5.0399 0.87 9.12 4.84 11.02 9.48 2.4401 5.79 3.4601 12.03 4.66 18.16 2.04 10.8 2.98 21.8 3 32.78 0.15 4.38-2.02 8.81-0.21 13.08 3.35-4.2 6.71-8.38 10.06-12.58 3.8101-4.78 6.1001-10.5 8.38-16.11 6.4401 2.18 15.62 4.23 16.66 12.31 0.83 4.92 1.97 11.57-2.88 14.84-4.3 3.67-11.2 3.68-14.01 9.0699 5.3101-1.31 10.72-3.56 16.28-2.48 2.74 0.67 2.95 4.02 3.66 6.27 1.0599 5.93 2.63 12.5 0.0199 18.26-3.0299 4.99-9.0599 6.69-14.15 8.78-0.5601 1.32-1.11 2.65-1.6001 4.02 4.9501-1.74 9.9-3.95 15.22-4.18 1.7799-0.16 3.9399 0.59 4.21 2.64 1.67 6.76-0.39 14.29-4.71 19.67-4.49 5.5-11.93 6.89-18.61 7.52-9.6901 1.04-20.09-1.2599-29.03 3.64-7.34 2.58-14.88 7.49-22.92 5.37-3.28 2.67-6.03 5.9-8.6799 9.19-13.08 15.55-26.32 30.96-39.56 46.38-22.68 25.95-45.03 52.24-69.26 76.79-4.23 3.8-8.1799 9.1901-14.36 9.53-12.46 0.98-24.95-0.64-37.24-2.64-18.73-3.1899-37.2-7.84-55.31-13.58 0.88-16.48 1.71-33.94 10.14-48.59 17.54 6.9801 34.93 14.39 52.88 20.29 7.9701 2.61 15.98 5.47 24.36 6.4401 4.99 0.98 8.65-3.11 12.37-5.67 39.14-30.19 76.5-62.61 113.31-95.58 3.66-3.62 8.85-7.02 9.14-12.66 0.3199-6.37 3.9399-11.81 7.0599-17.14 4.5901-7.71 10.96-14.38 14.17-22.87 4.04-10.32 5.88-22.06 2.6801-32.85-3.5801-9.95-9.54-18.94-12.39-29.18-1.8301-6.11-2.12-12.57-1.4301-18.88 0.5903-5.2899 0.7903-10.72 2.5403-15.79z" fill="#3EA43E" stroke="#3EA43E"/>
	<path d="m801.98 824.96c8.86-3.56 17.57-8.03 27.13-9.38 41.69 6.92 83.62 12.79 124.76 22.66 18.83 4.55 37.63 9.45 55.78 16.27 15.18 5.7 27.63 16.56 39.08 27.73 27.4 27.38 48.45 60.13 73.2 89.77 10.31 13.09 17.96 27.94 26.18 42.35-13.57 11.42-27.26 22.75-41.81 32.91-4.9 3.2-9.75 6.77-15.4 8.53-5.48 0.96-10.9-1.12-16.12-2.4801-17.57-5.45-34.64-12.38-51.47-19.76-0.98-1.76-2-3.4901-3.2-5.0901-20.81-24.33-39.42-50.65-54.72-78.8-4.45-8.78-9.33-17.46-12.17-26.92-1.5699-15.24-9.89-29.71-22.44-38.53-10.2-7.31-22.53-11-34.84-12.74-13.63-1.72-28-1.03-40.63 4.84-13.31 5.93-23.65 17.14-30.41 29.86-0.96-2.46-1.97-4.88-2.81-7.37-2.76-7.75 0.6299-16.47-2.82-24.05-4-2.54-8.91-1.42-13.33-1.1-9.29 0.81-19.43 1.09-27.6-4.1299-5.6801-4.13-10.78-11.01-9.11-18.41 1.37-4.63 4.43-8.66 8.14-11.69 7.5098-5.9 15.77-10.84 24.61-14.47z" fill="#CF4646" stroke="#CF4646"/>
	<path d="m915.63 824.13c9.88 0.01 19.72 1.07 29.57 1.8-2.22 0.4-4.22 1.42-6.09 2.62-7.8-1.59-15.67-2.86-23.48-4.42z" fill="#E9F1F1" stroke="#E9F1F1"/>
	<path d="m945.2 825.93c8.83 0.86 17.62 2.19 26.39 3.6 10.8 2.45 21.69 4.6299 32.29 7.9 19.82 6.05 39.68 11.99 59.47 18.15 10.73 3.52 21.76 6.67 31.62 12.33 7.1901 4.11 10.79 12.04 13.62 19.45 5.4501 15 12.71 29.28 21.2 42.78 2.3099 3.79 4.9399 7.52 5.72 12-9.78 1.04-19.58-0.33-29.37-0.1-11.01-14.38-22-28.77-33.08-43.1-9.14-11.71-19.2-22.88-31.16-31.78-15.56-11.84-33.65-19.84-52.16-25.83-16.56-5.41-33.6-9.18-50.63-12.78 1.8699-1.2 3.8699-2.22 6.0899-2.62m135.15 43.48c-2.87-0.0099-5.45 2.64-4.5599 5.57 2.08 9.57 9.7999 16.28 15 24.17 2.0699 2.8 3.87 6.49 7.5299 7.43 2.8 0.47 4.79-2.4 5.3-4.82 0.67-2.68-0.85-5.11-1.9301-7.42-2.75-5.48-3.49-11.87-7.2699-16.83-3.29-4.42-8.3599-8.18-14.07-8.1z" fill="#D9D8D8" stroke="#D9D8D8"/>
	<path d="m971.59 829.53c15.49-0.8101 30.44 5.7 45.98 4.3799 26.27 6.78 52.05 15.58 77.1 26.02 3.4199 1.49 6.87 2.94 10.28 4.48 1.14 0.65 2.7001 1.11 2.92 2.66 2.6801 8.41 5.58 16.77 9.27 24.81 3.9299 9.06 9.09 17.48 13.75 26.16 6.13 11.29 12.07 22.69 17.9 34.14-7.02-0.98-14.05-1.75-21.05-2.83l-3.2-0.48c0.0399 0.56 0.12 1.68 0.1599 2.24-0.1699-0.56-0.51-1.66-0.6799-2.21-4.8-0.75-9.6-1.4901-14.4-2.21-1.17-1.55-2.33-3.12-3.48-4.65 9.79-0.23 19.59 1.14 29.37 0.1-0.78-4.48-3.41-8.21-5.72-12-8.49-13.5-15.75-27.78-21.2-42.78-2.83-7.41-6.4299-15.34-13.62-19.45-9.86-5.66-20.89-8.81-31.62-12.33-19.79-6.16-39.65-12.1-59.47-18.15-10.6-3.2699-21.49-5.4499-32.29-7.8999z" fill="#7E7E7E" stroke="#7E7E7E"/>
	<path d="m1264.4 855.81c0.61 3.64 1.37 7.25 2.37 10.82-1.34 1.47-3.14 2.37-4.89 3.24-0.58-4.87 0.07-9.78 2.52-14.06z" fill="#349234" stroke="#349234"/>
	<path d="m1080.4 869.41c5.7101-0.08 10.78 3.6801 14.07 8.1 3.7799 4.96 4.5199 11.35 7.2699 16.83 1.0801 2.31 2.6001 4.74 1.9301 7.42-0.51 2.42-2.5 5.29-5.3 4.82-3.6599-0.94-5.46-4.63-7.5299-7.43-5.2001-7.89-12.92-14.6-15-24.17-0.8902-2.93 1.6898-5.58 4.5598-5.57z" fill="#F3F3F3" stroke="#F3F3F3"/>
	<path d="m855.31 876.32c12.63-5.87 27-6.56 40.63-4.84 12.31 1.74 24.64 5.43 34.84 12.74 12.55 8.82 20.87 23.29 22.44 38.53-2.79-4.83-5.33-9.78-8.18-14.56-3.45-10.38-12.64-17.07-21.44-22.76-7.77-4.93-16.87-7.69-26.03-8.32-13.34-1.42-26.85 0.8-39.49 5.07-6.49 2.34-13.36 4.61-18.35 9.6-7.3 7.11-11.65 16.6-15 26.08-6.41 19.02-8.75 39.14-9.62 59.11-1.5 45.5 8.99 91.4 30.32 131.64 4.49 8.09 8.75 16.95 16.68 22.25 3.24 2.34 7.17 3.25 11.03 3.99-0.08 0.3201-0.24 0.9401-0.32 1.26 4.85-1.89 10.23-2.17 14.76-4.9 2.84-1.0599 5.92-1.0499 8.92-0.85-6.51 5.48-14.77 9.5701-23.47 8.99-8.9901-0.63-16.64-6.4199-22.34-13.01-9.66-11.37-15.88-25.16-21.08-39.02-7.14-19.47-11.91-39.73-15.37-60.15-3.68-22.13-5.49-44.67-3.64-67.07 1.59-18.59 5.5-37.31 14.3-53.92 6.7601-12.72 17.1-23.93 30.41-29.86z" fill="#656464" stroke="#656464"/>
	<path d="m858.08 882.18c12.64-4.27 26.15-6.49 39.49-5.07-4.04 0.86-8.13 1.4-12.22 1.96-1.54 8.08-1.28 16.29-1.5 24.47-1.73 0.41-3.45 0.85-5.18 1.2-6.15 0.66-13.45 0.03-18.2 4.74-3.6299 3.57-2.3199 9.24-0.23 13.26 4.97 9.68 13.78 16.64 22.57 22.69-1.32 5.08-2.1 10.31-1.82 15.58 0.49 8.36-1.61 16.62-0.99 24.99 0.64 7.72-1.53 15.32-1 23.04 0.16 3.45-0.05 6.91-0.54 10.34-1.08 6.71 0.19 13.54-0.93 20.26-1.1801 6.96 0.1 14.04-0.97 21.01-0.69 4.74-0.65 9.5399-0.51 14.33 0.26 7.03-1.45 13.97-1.07 21.01 0.38 6.71-1.3 13.31-0.98 20.02 0.21 5.1899-0.15 10.41-1.3 15.5-0.62 0.23-1.85 0.7-2.46 0.9299 1.07 0.3401 2.15 0.7101 3.25 1.0801l-0.35 1.33c-3.86-0.74-7.79-1.65-11.03-3.99-7.93-5.2999-12.19-14.16-16.68-22.25-21.33-40.24-31.82-86.14-30.32-131.64 0.87-19.97 3.21-40.09 9.62-59.11 3.35-9.48 7.7-18.97 15-26.08 4.99-4.99 11.86-7.26 18.35-9.6z" fill="#DBDBDB" stroke="#DBDBDB"/>
	<path d="m897.57 877.11c9.16 0.63 18.26 3.39 26.03 8.32-0.09 0.68-0.16 1.37-0.21 2.08 0.15 2.34 2.14 3.82 3.72 5.32 5.2 4.54 10.04 9.6 13.63 15.54 5.27 8.57 8.11 18.32 12.52 27.32 7.87 16.3 16.84 32.09 26.9 47.15 10.86 15.23 22.48 29.91 34.28 44.43-5.35 3.2-8.85 8.58-10.89 14.36-5.13 14.13-5.67 29.36-6.02 44.24-0.4 18.19-0.33 36.46 1.84 54.55 1.5 10.7 3.59 21.9 10.19 30.76 4.02 5 8.07 10.18 13.55 13.67 3.35 2.23 6.97 4.02 10.63 5.6901-5.72-0.42-10.85-3.2201-16.13-5.16-16.63-7.1801-32.16-16.69-46.97-27.04-19.94-14.4-41.93-27.42-66.58-31.32-8.48-1.6-17.31 0.4299-24.54 5.04 2.66-0.4801 5.35-0.78 8.06-0.8501-4.53 2.73-9.91 3.01-14.76 4.9 0.08-0.3199 0.24-0.9399 0.32-1.26l0.35-1.33c-1.1-0.37-2.18-0.74-3.25-1.0801 0.61-0.23 1.84-0.7 2.46-0.9299 1.15-5.09 1.51-10.31 1.3-15.5-0.32-6.71 1.36-13.31 0.98-20.02-0.38-7.04 1.33-13.98 1.07-21.01-0.14-4.79-0.18-9.59 0.51-14.33 1.07-6.97-0.21-14.05 0.97-21.01 1.12-6.72-0.15-13.55 0.93-20.26 0.49-3.43 0.7-6.89 0.54-10.34-0.53-7.72 1.64-15.32 1-23.04-0.62-8.37 1.48-16.63 0.99-24.99-0.28-5.27 0.5-10.5 1.82-15.58 6.88 4.5 14.46 7.76 22.16 10.57 13.39 5.2 22.87 16.73 30.56 28.4 6.5 9.81 12.27 20.17 19.94 29.15 5.6 6.42 13.03 11.77 21.6 13.11 2.16 0.33 5.48 0.13 5.83-2.64 0.38-4.11-1.81-7.84-3.53-11.41-12.3-22.21-28.8-41.81-40.65-64.31-7.06-12.65-14.06-26.23-26.28-34.7-9.84-6.84-22.15-8.05-33.77-8.86 1.73-0.35 3.45-0.79 5.18-1.2 0.22-8.18-0.04-16.39 1.5-24.47 4.09-0.56 8.18-1.1 12.22-1.96z" fill="#D9D8D8" stroke="#D9D8D8"/>
	<path d="m923.39 887.51c0.05-0.71 0.12-1.4 0.21-2.08 8.8 5.69 17.99 12.38 21.44 22.76-5.7-8.3-12.87-15.64-21.65-20.68z" fill="#F3F3F3" stroke="#F3F3F3"/>
	<path d="m927.11 892.83c-1.58-1.5-3.57-2.98-3.72-5.32 8.78 5.04 15.95 12.38 21.65 20.68 2.85 4.78 5.39 9.73 8.18 14.56 2.84 9.46 7.72 18.14 12.17 26.92 15.3 28.15 33.91 54.47 54.72 78.8-1.57 0.6801-3.13 1.36-4.64 2.14-1.7599 1.7001-3.37 3.5601-4.7599 5.58-8.43 14.65-9.26 32.11-10.14 48.59-0.1 1.97-0.19 3.95-0.24 5.9399-0.18 12.44-0.3 24.91 0.72 37.33 1.02 13 2.36 26.37 8.48 38.13-0.13 1.6499-0.17 3.33 0.03 5-6.6-8.8601-8.69-20.06-10.19-30.76-2.17-18.09-2.24-36.36-1.84-54.55 0.35-14.88 0.89-30.11 6.02-44.24 2.04-5.78 5.54-11.16 10.89-14.36-11.8-14.52-23.42-29.2-34.28-44.43-10.06-15.06-19.03-30.85-26.9-47.15-4.41-9-7.25-18.75-12.52-27.32-3.5901-5.9401-8.4301-11-13.63-15.54z" fill="#7F7E7E" stroke="#7F7E7E"/>
	<path d="m860.47 909.48c4.75-4.71 12.05-4.08 18.2-4.74 11.62 0.81 23.93 2.02 33.77 8.86 12.22 8.47 19.22 22.05 26.28 34.7 11.85 22.5 28.35 42.1 40.65 64.31 1.72 3.57 3.91 7.3 3.53 11.41-0.35 2.77-3.67 2.97-5.83 2.64-8.57-1.3401-16-6.6901-21.6-13.11-7.67-8.98-13.44-19.34-19.94-29.15-7.69-11.67-17.17-23.2-30.56-28.4-7.7-2.81-15.28-6.07-22.16-10.57-8.79-6.05-17.6-13.01-22.57-22.69-2.09-4.02-3.4-9.69 0.23-13.26z" fill="#F3F3F3" stroke="#F3F3F3"/>
	<path d="m1109.6 946.69c4.8 0.72 9.6 1.46 14.4 2.21 0.1699 0.55 0.51 1.65 0.6799 2.21 2.17 7.76 4.24 15.55 5.99 23.42-7.0599-9.26-14.01-18.58-21.07-27.84z" fill="#D9D8D8" stroke="#D9D8D8"/>
	<path d="m1124.5 948.87c0.7999 0.12 2.3999 0.36 3.2 0.48 4.67 13.35 9.2 26.76 14.14 40.02-3.75-4.94-7.5601-9.82-11.19-14.84-1.75-7.8701-3.8199-15.66-5.99-23.42-0.0399-0.56-0.1199-1.68-0.1599-2.24z" fill="#646363" stroke="#646363"/>
	<path d="m1270.4 955.56c2.5699 0.26 5.17 0.34 7.76 0.47-2.72 0.89-5.4301 1.77-8.0701 2.83 0.0801-1.11 0.1901-2.21 0.3101-3.3z" fill="#D9D8D8" stroke="#D9D8D8"/>
	<path d="m1261.1 967.11c7.39-3.05 14.8-6.72 22.89-7.37 4.88-0.68 7.47 5.1 6.28 9.18-1.28 5.06-2.53 10.99-7.24 14.02-1.8201 1.22-3.3301 2.8-4.4301 4.69 3.72-0.85 7.97-2.91 11.64-0.96 3.24 4.3 3.03 10.27 2.39 15.38-1.27 6.69-7.64 10.24-12.11 14.68 3.27 1.42 6.77 2.94 8.7999 6.06 2.36 3.31 3.85 8.21 1.17 11.78-3.3 4.51-9.22 5.5-14.39 6.17-5.27 0.42-11.08 0.9-15.82-1.89-2.8401-1.6-2.2201-5.1799-2.17-7.88 0.24-2.5-0.01-5.3099 1.45-7.47 2.99-2 6.87-2.38 9.54-4.97-5.29-0.86-11.52-2.09-14.43-7.11-3.1599-6.23-1.85-14.65 3.1801-19.51 3.83-2.3 9.01-2.68 11.38-6.97-4.76 0.38-10.17 1.23-14.25-1.89-2.87-2.14-5.48-6.19-3.5601-9.75 2.2002-3.33 6.2202-4.6 9.6802-6.19z" fill="#3EA43E" stroke="#3EA43E"/>
	<path d="m1252.1 986.16c1.38 0.6801 2.76 1.3701 4.17 2.09-3.87 4.18-8.36 8.71-8.49 14.8-0.49 6.96 4.2 12.78 9.4199 16.79-3.26 4.0099-5.34 8.92-4.86 14.18-5.74 0.89-11.59 1.6899-17.38 0.96-2.72-0.29-4.1-2.99-5.7899-4.78 0.34-1.23 0.74-2.4199 1.21-3.59-2.25 0.59-4.47 1.26-6.62 2.1-17.71 7.3401-35.41 14.69-53.19 21.84-0.8099-1.8-1.61-3.5801-2.3999-5.3601 17.97-8.33 35.82-16.93 53.81-25.21 1.14-0.66 2.53-1.15 3.2001-2.38 2.4199-4.4 5-8.7 7.3099-13.16 4.4101-8.04 12.54-12.85 19.61-18.28z" fill="#349234" stroke="#349234"/>
	<path d="m1015.5 1030.6c1.51-0.78 3.07-1.46 4.64-2.14 1.2 1.6 2.22 3.3301 3.2 5.0901-2.58-1.1001-5.19-2.0801-7.84-2.9501z" fill="#626663" stroke="#626663"/>
	<path d="m1161.2 1041.6c17.84 39.18 33.73 79.22 48.48 119.66 12.96 35.94 25.62 72.02 36.31 108.71 1.21 4.5 3.0399 9.0699 2.37 13.83-3.37 2.4501-6.5 5.2001-9.65 7.91-11.6 9.9399-25.45 16.72-39.38 22.71-19.59 8.12-39.89 14.47-60.51 19.38-21.54 5.35-43.69 7.87-65.81 9.12-30.75 0.4401-62.44-3.6499-90.07-17.91-9.72-4.4401-18.36-10.86-26.69-17.46-10.91-10.17-21.79-20.97-28.39-34.55-4.67-9.0601-7.68-19.81-4.62-29.87 1.59-6.24 5.03-11.84 9.46-16.46 7.18-8.1 16.48-13.88 25.93-18.96 17.71-8.89 36.58-15.16 55.59-20.6 8.73 3.5699 17.89 6.59 27.41 6.88 4.1899-3.6901 0.88-9.72-0.28-14.1 20-6.3501 40.89-9.9901 60.25-18.28 6.08-2.89 12.32-6 17.06-10.88 1.78-2.23 4.38-5.76 1.91-8.42-5.0699-4.7-12.45-5.02-18.94-5.95-18.93-1.4401-37.94 0.01-56.71 2.6699-5.1799 0.8201-10.67 0.79-15.34 3.51-1.55-14.37-0.7-28.87 0.09-43.26l1.13 0.2301c17.08 4.1899 34.45 7.9199 52.1 8.4299 7.9301-0.1 16.73-0.52 23.12-5.83 6.15-5.2001 11.57-11.19 17.1-17.02 13.06-14.17 25.61-28.8 38.08-43.49z" fill="#CF4646" stroke="#CF4646"/>
	<path d="m1264.2 1045c5.08 1.4301 10.4 1.64 15.65 1.36 2 6.25 4.47 12.97 10.1 16.88 2.23 1.72 5.52 3.5 5.11 6.83-0.79 2.92-3.67 4.55-6.29 5.5801-7.9399 2.8199-16.54 2.6-24.81 2.01-4.6801-0.5801-9.63-1.13-13.6-3.87-2.17-1.4501-3.6201-4.16-2.88-6.77 1.21-4.9501 5.21-8.46 9.0199-11.53 3.47-2.7401 5.65-6.6601 7.7-10.49z" fill="#525252" stroke="#525252"/>
	<path d="m1000.3 1090.7c8.27 2.72 16.65 5.12 25.07 7.38-0.64 12.6-1.59 25.25-0.5 37.86 0.59 9.0701 4.27 17.51 7.1 26.04 2.97 8.95 6.89 17.73 7.97 27.18-6.23 0.47-11.77-2.91-16.57-6.4501-5.84-4.35-10.62-10.05-13.87-16.55-6.1201-11.76-7.46-25.13-8.48-38.13-1.0201-12.42-0.9001-24.89-0.7201-37.33z" fill="#AEAEAE" stroke="#AEAEAE"/>
	<path d="m1025.4 1098.1c1.7999 0.48 3.61 0.98 5.45 1.4501l-1.13-0.2301c-0.7899 14.39-1.64 28.89-0.09 43.26 1.45 13.12 7.24 25.11 11.77 37.35 1.16 4.38 4.47 10.41 0.28 14.1-2.5-1.49-5.15-2.72-7.9401-3.49-3.66-1.67-7.28-3.4601-10.63-5.6901-5.48-3.49-9.53-8.6699-13.55-13.67-0.2-1.67-0.16-3.3501-0.03-5 3.25 6.5 8.03 12.2 13.87 16.55 4.7999 3.54 10.34 6.92 16.57 6.4501-1.08-9.4501-5-18.23-7.97-27.18-2.83-8.53-6.51-16.97-7.1-26.04-1.0898-12.61-0.1398-25.26 0.5002-37.86z" fill="#646565" stroke="#646565"/>
	<path d="m879.52 1132.1c7.23-4.6101 16.06-6.64 24.54-5.04 24.65 3.9 46.64 16.92 66.58 31.32 14.81 10.35 30.34 19.86 46.97 27.04 5.28 1.9399 10.41 4.74 16.13 5.16 2.79 0.77 5.4401 2 7.9401 3.49-9.52-0.29-18.68-3.3101-27.41-6.88-22.28-9.3101-42.44-22.74-62.62-35.81-16.89-10.15-35.14-19.6-55.15-20.98-3-0.2-6.08-0.21-8.92 0.85-2.7101 0.0701-5.4001 0.3701-8.0601 0.8502z" fill="#AEAEAE" stroke="#AEAEAE"/>
	<path d="m1045 1139.1c18.77-2.6599 37.78-4.11 56.71-2.6699 6.49 0.9299 13.87 1.25 18.94 5.95 2.47 2.66-0.13 6.1901-1.91 8.42-4.74 4.88-10.98 7.99-17.06 10.88-19.36 8.2899-40.25 11.93-60.25 18.28-4.53-12.24-10.32-24.23-11.77-37.35 4.6699-2.7199 10.16-2.6899 15.34-3.51z" fill="#C24141" stroke="#C24141"/>
	<path d="m695.57 1269c3.23-2.36 7.46-1.5601 10.72 0.2899-28.21 20.84-58.36 39.18-90.37 53.58-18.96 8.37-38.58 15.42-58.85 19.86-44.73 9.5699-90.76 7.6799-136.01 12.78-22.66 2.6499-45.22 7.84-65.99 17.45-15.54 7.4399-30.65 15.77-45.34 24.76-26.16 16.01-50.32 35.25-71.71 57.23-14.03 14.27-26.99 29.54-39.38 45.24-12.15 15.54-23.7 31.56-34.1 48.32-7.74 12.79-15.43 25.76-20.72 39.79 4.96-5.4 9.78-10.91 14.89-16.17 11.62-10.64 23.45-21.15 36.65-29.82 15.69-10.81 33.09-19.01 51.21-24.83 20.11-6.88 41.15-11.09 62.4-12.02 17.12-0.8 34.23 1.16 51.06 4.21 20.25 3.75 39.76 10.52 59.31 16.84 23.09 7.46 46.08 15.3 69.51 21.64 18.08 4.7401 36.4 9.3601 55.15 10.14 11.47 0.5801 22.78-1.84 33.94-4.14 39.01-8.6399 76.77-21.86 114.98-33.35 12.19-3.75 24.76-6.08 36.9-9.96 1.71-8.37 2.84-16.83 3.44-25.34 1.64 11.49 3.51 23.46 0.22 34.83-1.82 12.17-5.2 24.24-4.7 36.65 0.3199 13.72 5.27 27.02 12.75 38.42 6.34 9.7401 14.21 18.38 22.68 26.29 10.04 9.42 19.08 20.55 23.29 33.86 3.78 11.46 3.14 24.02-0.4 35.46-5.06 16.22-13.55 31.27-17.22 47.95-2.19 9.9399-1.5 21.08 4.56 29.6 3.04 4.7001 7.73 8.28 13.14 9.8 12.75 3.77 26.22 3.5 39.39 3.24 23.37-0.83 46.66-3.14 70-4.52 23.98-1.6 48.08-1.8099 72.04 0.22 7.51 0.51 14.99 1.4501 22.52 1.79 21.45 2.89 42.97 5.3199 64.36 8.6801 22.7 3.2899 45.37 6.86 68.19 9.33 25.23 2.42 50.61 3.63 75.95 2.62 11.46-0.8 23.17-1.5701 34.06-5.54 4.8401-1.71 9.8201-4.95 10.63-10.45 0.73-7.84-4.9199-14.25-10.42-19.03-11.71-9.76-25.92-16-40.34-20.56-17.89-5.91-37.06-3.7001-55.43-1.8301-6.22 0.72-12.43 1.49-18.61 2.47-21.58 2.64-43.08 7.2401-64.94 6.39-21.1-0.1699-42.45-1.0399-62.96-6.45-11.1-3-21.94-7.67-30.95-14.91-4.17-3.2999-7.51-8.39-6.61-13.91 1.12-7.98 5-15.19 7.73-22.67 4.76-13.32 14.75-23.78 24.5-33.66 13.78-13.64 28.99-25.7 43.86-38.11 8.36-7.01 16.07-15.03 21.61-24.47 1.9299-6.8101 1.59-14.07 1.5599-21.09-0.89-22.5-4.61-45.41-14.86-65.68-3.38-7.17-8.39-13.3-13.28-19.45 8.6801 2.34 13.87 10.4 17.75 17.92 7.51 15.44 11.17 32.42 14.01 49.26 1.9701 11.53 2.26 23.26 1.5701 34.92 16.03-0.85 30.66-8.4601 43.83-17.1 15.82-10.5 29.87-23.39 43.39-36.66 22.32-22.2 42.95-46.14 61.37-71.68 11.46-15.94 22.15-32.52 30.76-50.19 6.75-13.69 11-28.44 14.42-43.26 5.7599-25.69 6.95-53-0.63-78.44 1.62-1.46 3.2-2.97 4.72-4.5299 5.5699 23.11 7.96 47.25 4.33 70.86-5.2999 36.46-22.48 69.96-42.92 100.16-19.87 28.93-42.75 55.73-67.33 80.76-13.81 13.96-28.59 27.07-44.9 38.06-13.99 14.11-29.51 26.56-44.48 39.61-10.27 9.0699-20.23 18.76-27.45 30.5-4.99 7.95-10.25 16.38-11.06 25.95-0.7 6.4 2.81 12.57 7.95 16.2 9.4299 6.78 21.01 9.48 32.17 12.02 21.69 4.34 43.79 7.36 65.97 6.9199 21.14 0.1 42.06-3.46 62.85-6.9399 12.61-2.04 25.3-3.9601 38.11-4.02 19.07 0.1801 38 5.14 55.03 13.65 8.47 4.39 16.53 10.07 22.28 17.8 3.91 5.25 6.53 11.85 5.62 18.49-0.84 5.8101-4.1499 11.82-9.95 13.88-10.12 3.9301-21.12 4.6901-31.85 5.39-8.17 0.62-16.36 0.6901-24.54 0.54 5.2001 8.3 5.28 20.52-2.53 27.25-6.3099 4.22-14.11 5.1801-21.46 6.27-14.11 1.86-28.37 1.9299-42.57 1.74-24.45-0.03-48.84-2.0701-73.16-4.38-23.67-2.45-47.28-5.45-70.75-9.36-23.73-3.74-47.12-9.6-71.1-11.6-26.63-2.76-53.51-1.9601-80.09 0.98-26.92 2.7-53.92 7.61-81.06 5.02-10.25-1.16-20.98-2.9501-29.58-9.03-6.11-4.2001-9.78-11.37-10.23-18.7-0.67-10.31 2.45-20.32 5.21-30.11 2.66-8.59 4.65-17.4 8.05-25.73 4.37-11.21 9.12-22.88 8.05-35.16-1.07-14.44-9.46-27.02-18.79-37.57-5.92-6.77-12.67-12.71-19.35-18.7-13.37-12.52-19.98-30.76-21.21-48.74-1.03-15.59 0.5-31.29 4.1-46.48-43.67 9.5701-85.16 26.67-128.13 38.7-22.74 6.4399-46.46 10.64-70.14 8.23-40.91-3.88-78.46-21.77-117.16-34.15-23.58-7.8199-47.87-13.82-72.63-16.3-24.04-2.2301-48.7-2.54-72.23 3.6499-36.76 9.3301-69.41 30.6-97.02 56.12-21.61 20.25-40.94 43.07-56.7 68.17 1.47-7.22 4.29-14.09 6.74-21.01 14.22-37.28 34.17-72.21 57.43-104.56 23.29-32.23 50.14-61.86 79.7-88.45 27.29-24.35 58.09-45.23 92.21-58.74 24.06-9.5699 49.55-15.3 75.28-17.95 22.42-2.5 45-2.8201 67.5-4.12 23.29-0.92 46.58-3.91 69.04-10.25 36.99-10.32 72.01-27 104.42-47.48 9.3601-6.0099 18.56-12.3 27.13-19.4m367.41 328.96c-2.53 0.55-6.01-0.1801-7.4199 2.5699-5.53 8.5701-12.59 16.01-19.95 23.02-14.33 13.41-29.8 25.53-44.2 38.86-11.33 10.32-20.63 22.8-27.39 36.55-2.71 6.17-5.29 13.26-3.06 20 2 6.4399 7.89 10.6 13.66 13.48 8.99 4.27 18.74 6.6 28.44 8.65 23.03 4.39 46.49 7.22 69.97 6.1899 24.23-0.5699 47.97-5.8899 71.89-9.2 17.97-2.47 36.55-2.3 54.02 3 16.89 4.98 34.31 12.35 45.45 26.59 14.37-0.59 28.75-2.1899 42.8-5.3199 6.2101-1.59 12.85-3.15 17.77-7.53 3.0601-2.65 3.73-7.25 2.0801-10.84-3.1001-7.35-8.92-13.04-14.39-18.65-4.05-4.22-8.9-7.67-14.31-9.9-10.86-4.65-22.69-6.36-34.38-7.36-23.39-1.51-46.91 0.1801-70.02 3.9501-22.79 3.7599-46 3.98-69 2.62-21.77-1.53-43.45-4.7101-64.58-10.17-7.87-2.3-16.05-6.08-20.54-13.28-4.45-7.49-3.11-16.79-0.23-24.58 5.08-13.17 12.75-25.35 22.71-35.39 13.05-13.79 27.66-25.96 41.86-38.51-7.0299 1.87-13.87 4.59-21.18 5.25z" fill="#008300" stroke="#008300"/>
	<path d="m615.92 1322.9c32.01-14.4 62.16-32.74 90.37-53.58-1.49 19.3-5.14 38.36-8.68 57.37-3.55 17.2-7.81 34.47-15.59 50.32-5.16 10.48-12.37 20.32-22.3 26.73-4.06 2.58-8.68 4.9301-13.63 4.53-3.96-0.25-7.44-2.55-10.09-5.36-7.84-8.3401-11.55-19.99-20.64-27.23-4.57-3.7599-11.11-4.0099-16.47-1.9399-7.93 3.05-14.42 8.8101-20.44 14.65-10.87 10.83-21.39 22.29-34.42 30.6-6.55 4.15-14.05 7.42-21.95 7.14-6.99-0.12-13.48-3.3-19.21-7.0601-7.14-4.6899-13.14-10.82-19.69-16.25-8.3-6.84-19.62-9.96-30.21-7.86-12.81 2.4601-24.05 9.8301-33.79 18.21-7.74 6.62-14.54 14.23-20.94 22.13-4.64 5.6599-10.62 11.08-18.22 11.89-9.11 1.02-17.33-3.96-24.86-8.38-13.51-8.4199-27.08-17.84-43.06-20.72-6.1-1.25-12.96-0.1-17.46 4.4601-6.46 6.49-9.97 15.18-13.77 23.35-6.45 13.96-11.66 28.67-20.66 41.28-3.96 5.7401-8.81 10.79-13.76 15.67-5.97 4.8201-12.78 8.4501-20.03 10.93-3.38-0.16-7.22 0.08-10.01-2.1901-2.95-2.9299-3.11-7.91-6.81-10.2-3.24-2.1801-7.31-1.4301-10.96-1.17 12.39-15.7 25.35-30.97 39.38-45.24 21.39-21.98 45.55-41.22 71.71-57.23 14.69-8.99 29.8-17.32 45.34-24.76 20.77-9.61 43.33-14.8 65.99-17.45 45.25-5.1001 91.28-3.2101 136.01-12.78 20.27-4.4399 39.89-11.49 58.85-19.86z" fill="#6CC36C" stroke="#6CC36C"/>
	<path d="m706.29 1269.3c6.67 5.4801 9.83 13.78 12.79 21.62 4.2 11.26 7.9 22.74 10.48 34.5-0.64 9.15 0.09 18.37-1.28 27.47-2.6201 20.24-9.46 39.7-18.24 58.04-1.86 3.8201-3.43 7.77-4.79 11.8 4.6 4.48 10.23 8.9 11.29 15.66 0.88 6.6799-3.27 12.75-7.71 17.31-7.43 7.3-16.59 12.47-25.65 17.45-7.79 4.5099-16.11 7.98-24.29 11.71-8.3 3.62-16.46 7.67-25.01 10.66-21.37 4.1699-43.19 5.2999-64.89 6.33-30.5 0.85-60.98-0.92-91.36-3.4401-48.02-3.5099-95.85-9.33-143.93-11.96-24.72-1.6699-49.75 2.38-72.85 11.29-4.82 1.6699-9.26 4.49-14.4 5.09 4.95-4.88 9.8-9.9299 13.76-15.67 9-12.61 14.21-27.32 20.66-41.28 3.8-8.17 7.31-16.86 13.77-23.35 4.5-4.5601 11.36-5.7101 17.46-4.4601 15.98 2.88 29.55 12.3 43.06 20.72 7.53 4.42 15.75 9.4 24.86 8.38 7.6-0.8099 13.58-6.23 18.22-11.89 6.4-7.9 13.2-15.51 20.94-22.13 9.74-8.38 20.98-15.75 33.79-18.21 10.59-2.1 21.91 1.02 30.21 7.86 6.55 5.4301 12.55 11.56 19.69 16.25 5.73 3.76 12.22 6.9401 19.21 7.0601 7.9 0.28 15.4-2.99 21.95-7.14 13.03-8.3101 23.55-19.77 34.42-30.6 6.02-5.84 12.51-11.6 20.44-14.65 5.36-2.0699 11.9-1.8199 16.47 1.9399 9.09 7.2401 12.8 18.89 20.64 27.23 2.65 2.8099 6.13 5.11 10.09 5.36 4.95 0.4 9.5699-1.9501 13.63-4.53 9.9301-6.41 17.14-16.25 22.3-26.73 7.78-15.85 12.04-33.12 15.59-50.32 3.5402-19.01 7.1902-38.07 8.6802-57.37z" fill="#3EA43E" stroke="#3EA43E"/>
	<path d="m1229.2 1311.5c7.96-4.77 15.8-9.8201 22.8-15.96 7.58 25.44 6.3899 52.75 0.63 78.44-3.42 14.82-7.67 29.57-14.42 43.26-8.61 17.67-19.3 34.25-30.76 50.19-18.42 25.54-39.05 49.48-61.37 71.68-13.52 13.27-27.57 26.16-43.39 36.66-13.17 8.6399-27.8 16.25-43.83 17.1 0.6899-11.66 0.4-23.39-1.5701-34.92-2.84-16.84-6.5-33.82-14.01-49.26-3.88-7.52-9.0699-15.58-17.75-17.92 4.89 6.1499 9.9 12.28 13.28 19.45 10.25 20.27 13.97 43.18 14.86 65.68 0.03 7.02 0.37 14.28-1.5599 21.09-5.54 9.4399-13.25 17.46-21.61 24.47-14.87 12.41-30.08 24.47-43.86 38.11-9.75 9.88-19.74 20.34-24.5 33.66-2.73 7.48-6.61 14.69-7.73 22.67-0.9 5.52 2.44 10.61 6.61 13.91 9.01 7.24 19.85 11.91 30.95 14.91 20.51 5.41 41.86 6.28 62.96 6.45 21.86 0.8501 43.36-3.75 64.94-6.39-1.29 3.0901-3.4401 6.5701-1.66 9.9501 3.09 6.1899 9.76 9.33 15.74 12.13 20.24 8.5699 42.42 10.1 63.9 13.47 15.5 1.98 31.13 5.48 46.82 3.4-0.8099 5.5-5.7899 8.74-10.63 10.45-10.89 3.97-22.6 4.74-34.06 5.54-25.34 1.01-50.72-0.2-75.95-2.62-22.82-2.47-45.49-6.04-68.19-9.33-21.39-3.3601-42.91-5.79-64.36-8.6801-6.82-3.63-14.54-4.79-21.94-6.65-48.8-10.65-98.98-11.17-148.64-13.74-6.28-0.6899-13.02-1.65-18.13-5.64-3.4-3.14-3.03-8.35-0.89-12.08 3.52-7.13 9.81-12.25 15.33-17.77 15.53-13.45 32.46-25.15 49.56-36.49 6.72-4.96 13.96-9.22 20.42-14.52 3.67-2.96 6.33-7.49 5.89-12.32-0.62-8.77-6-16.15-11.01-23.01-16.68-21.78-37.09-40.31-54.49-61.46-5.59-8.22-5.69-18.97-3.39-28.33 3.93-15.53 11.59-29.94 21.07-42.77 11.38-14.85 26.88-27.67 45.59-31.53 18.58-3.45 36.67-9.13 54.41-15.56 36.24-13.01 71.5-28.55 106.56-44.42 29.23-13.23 58.18-27.03 87.13-40.85 8.11-4.3 16.77-7.48 24.67-12.17 17.13-8.97 33.6-19.29 48.62-31.5 4.4399-3.5699 8.46-7.61 12.88-11.2 1.8699-1.44 3.14-3.4501 4.0799-5.5801z" fill="#3EA43E" stroke="#3EA43E"/>
	<path d="m1181 1335.1c16.18-7.61 32.5-14.99 48.2-23.58-0.9399 2.13-2.21 4.14-4.08 5.58-4.42 3.59-8.4401 7.63-12.88 11.2-15.02 12.21-31.49 22.53-48.62 31.5-7.9 4.6901-16.56 7.87-24.67 12.17-28.95 13.82-57.9 27.62-87.13 40.85-35.06 15.87-70.32 31.41-106.56 44.42-17.74 6.4299-35.83 12.11-54.41 15.56-18.71 3.8601-34.21 16.68-45.59 31.53-9.48 12.83-17.14 27.24-21.07 42.77-2.3 9.36-2.2 20.11 3.39 28.33 17.4 21.15 37.81 39.68 54.49 61.46 5.01 6.86 10.39 14.24 11.01 23.01 0.44 4.83-2.22 9.36-5.89 12.32-6.46 5.3-13.7 9.5601-20.42 14.52-17.1 11.34-34.03 23.04-49.56 36.49-5.52 5.52-11.81 10.64-15.33 17.77-2.14 3.73-2.51 8.9399 0.89 12.08 5.11 3.99 11.85 4.9501 18.13 5.64 49.66 2.5701 99.84 3.09 148.64 13.74 7.4 1.86 15.12 3.02 21.94 6.65-7.53-0.34-15.01-1.28-22.52-1.79-23.96-2.0299-48.06-1.8199-72.04-0.22-23.34 1.38-46.63 3.6901-70 4.52-13.17 0.26-26.64 0.53-39.39-3.24-5.41-1.52-10.1-5.1-13.14-9.8-6.06-8.52-6.75-19.66-4.56-29.6 3.67-16.68 12.16-31.73 17.22-47.95 3.54-11.44 4.1801-24 0.4-35.46-4.21-13.31-13.25-24.44-23.29-33.86-8.47-7.91-16.34-16.55-22.68-26.29-7.48-11.4-12.43-24.7-12.75-38.42-0.5-12.41 2.8799-24.48 4.7-36.65 3.29-11.37 1.42-23.34-0.22-34.83-0.6 8.51-1.73 16.97-3.44 25.34-12.14 3.88-24.71 6.21-36.9 9.96-38.21 11.49-75.97 24.71-114.98 33.35-11.16 2.3-22.47 4.7201-33.94 4.14-18.75-0.7799-37.07-5.3999-55.15-10.14-23.43-6.34-46.42-14.18-69.51-21.64-19.55-6.3201-39.06-13.09-59.31-16.84-16.83-3.0499-33.94-5.01-51.06-4.21-21.25 0.9301-42.29 5.14-62.4 12.02-18.12 5.8199-35.52 14.02-51.21 24.83-13.2 8.67-25.03 19.18-36.65 29.82 2.65-4.9601 7.2-8.41 10.95-12.46 12.2-12.59 25.65-23.95 39.93-34.12 5.57-3.99 11.67-7.25 16.83-11.8 7.25-2.48 14.06-6.11 20.03-10.93 5.14-0.6 9.58-3.42 14.4-5.09 23.1-8.91 48.13-12.96 72.85-11.29 48.08 2.63 95.91 8.4501 143.93 11.96 30.38 2.52 60.86 4.29 91.36 3.4401 21.7-1.03 43.52-2.16 64.89-6.33 8.55-2.99 16.71-7.04 25.01-10.66 8.18-3.73 16.5-7.2001 24.29-11.71 9.06-4.9801 18.22-10.15 25.65-17.45 4.44-4.5599 8.59-10.63 7.71-17.31-1.06-6.76-6.69-11.18-11.29-15.66 1.36-4.03 2.93-7.98 4.79-11.8 8.78-18.34 15.62-37.8 18.24-58.04 1.37-9.1001 0.64-18.32 1.28-27.47 4.02 16.19 6.13 32.86 6.25 49.54-0.23 11.28-1.08 23.23-7.51 32.91 6.8 6.9299 14.84 12.56 23 17.78 17.83 11.17 37.98 18.78 58.86 21.59 18.22 2.4199 36.83 0.97 54.62-3.52 30.03-6.76 59.4-16.05 88.31-26.56 18.71-6.7 37.77-12.48 57.17-16.87 17.27-3.88 34.11-9.4199 50.8-15.28 40.79-14.66 80.6-31.89 119.99-49.92z" fill="#349234" stroke="#349234"/>
	<path d="m164.54 1548.6c10.4-16.76 21.95-32.78 34.1-48.32 3.65-0.26 7.72-1.01 10.96 1.17 3.7 2.2899 3.86 7.27 6.81 10.2 2.79 2.27 6.63 2.03 10.01 2.1901-5.16 4.5499-11.26 7.8099-16.83 11.8-14.28 10.17-27.73 21.53-39.93 34.12-3.75 4.05-8.3 7.5-10.95 12.46-5.11 5.26-9.93 10.77-14.89 16.17 5.29-14.03 12.98-27 20.72-39.79z" fill="#3EA43E" stroke="#3EA43E"/>
	<path d="m1063 1598c7.3101-0.66 14.15-3.38 21.18-5.25-14.2 12.55-28.81 24.72-41.86 38.51-9.9601 10.04-17.63 22.22-22.71 35.39-2.88 7.7899-4.22 17.09 0.23 24.58 4.4901 7.2001 12.67 10.98 20.54 13.28 21.13 5.46 42.81 8.64 64.58 10.17 23 1.36 46.21 1.1399 69-2.62 23.11-3.77 46.63-5.4601 70.02-3.9501 11.69 1 23.52 2.71 34.38 7.36 5.41 2.23 10.26 5.6801 14.31 9.9 5.47 5.61 11.29 11.3 14.39 18.65 1.6499 3.59 0.98 8.1899-2.0801 10.84-4.9199 4.38-11.56 5.9401-17.77 7.53-14.05 3.13-28.43 4.73-42.8 5.3199-11.14-14.24-28.56-21.61-45.45-26.59-17.47-5.3-36.05-5.47-54.02-3-23.92 3.3101-47.66 8.63-71.89 9.2-23.48 1.03-46.94-1.7999-69.97-6.1899-9.7-2.05-19.45-4.38-28.44-8.65-5.77-2.88-11.66-7.04-13.66-13.48-2.23-6.74 0.35-13.83 3.06-20 6.76-13.75 16.06-26.23 27.39-36.55 14.4-13.33 29.87-25.45 44.2-38.86 7.36-7.01 14.42-14.45 19.95-23.02 1.4097-2.75 4.8897-2.0199 7.4197-2.5699z" fill="#349234" stroke="#349234"/>
	<path d="m1138.5 1742.4c18.37-1.87 37.54-4.08 55.43 1.8301 14.42 4.5599 28.63 10.8 40.34 20.56 5.5 4.78 11.15 11.19 10.42 19.03-15.69 2.08-31.32-1.42-46.82-3.4-21.48-3.37-43.66-4.9-63.9-13.47-5.98-2.8-12.65-5.9401-15.74-12.13-1.78-3.38 0.37-6.86 1.66-9.9501 6.18-0.9799 12.39-1.75 18.61-2.4699z" fill="#6CC36C" stroke="#6CC36C"/>
</g>
</svg>
